<?xml version="1.0" encoding="UTF-8"?>
<svg width="40px" height="40px" viewBox="0 0 40 40" version="1.1" xmlns="http://www.w3.org/2000/svg" xmlns:xlink="http://www.w3.org/1999/xlink">
    <!-- Generator: Sketch 60.1 (88133) - https://sketch.com -->
    <title>on_feature_12</title>
    <desc>Created with Sketch.</desc>
    <g id="on_feature_12" stroke="none" stroke-width="1" fill="none" fill-rule="evenodd">
        <g id="Group">
            <polygon id="Fill-1" points="0 40 40 40 40 0 0 0"></polygon>
            <path d="M34.0015605,3 L5.99744078,3 C4.89385475,3 4,3.89734306 4,5.00523589 L4,35.4366958 C4,36.5445886 4.89385475,37.4419317 5.99744078,37.4419317 L7.04409975,37.4419317 L7.04409975,39 L9.04154053,39 L9.04154053,37.4419317 L30.9195094,37.4419317 L30.9195094,39 L32.9169502,39 L32.9169502,37.4419317 L34.0025592,37.4419317 C35.1061453,37.4419317 36,36.5445886 36,35.4366958 L36,5.00523589 C35.9990013,3.89834568 35.1051465,3 34.0015605,3 Z M19.0007803,35.4366958 L5.99744078,35.4366958 L5.99744078,5.00523589 L19.0007803,5.00523589 L19.0007803,35.4366958 Z M34.0015605,35.4366958 L20.998221,35.4366958 L20.998221,5.00523589 L34.0015605,5.00523589 L34.0015605,35.4366958 Z M16.3391904,18.1896619 L14.5574732,18.1896619 L14.5574732,23.7221077 L16.3391904,23.7221077 L16.3391904,18.1896619 Z M25.441528,18.1896619 L23.6598109,18.1896619 L23.6598109,23.7221077 L25.441528,23.7221077 L25.441528,18.1896619 Z" id="Shape" fill="#5C656B"></path>
        </g>
    </g>
</svg>