<?xml version="1.0" encoding="UTF-8"?>
<svg width="40px" height="40px" viewBox="0 0 40 40" version="1.1" xmlns="http://www.w3.org/2000/svg" xmlns:xlink="http://www.w3.org/1999/xlink">
    <!-- Generator: Sketch 60.1 (88133) - https://sketch.com -->
    <title>on_feature_4</title>
    <desc>Created with Sketch.</desc>
    <g id="on_feature_4" stroke="none" stroke-width="1" fill="none" fill-rule="evenodd">
        <g id="Group">
            <polygon id="Fill-1" points="0 40 40 40 40 0 0 0"></polygon>
            <path d="M35.9953224,7 L4.00467758,7 C2.8990979,7 2,7.90655368 2,9.02130141 L2,11.7662287 C2,12.8809764 2.8990979,13.7875301 4.00467758,13.7875301 L4.00467758,33 L6.00935516,33 L6.00935516,29.4495841 L34.1109255,29.4495841 L34.1109255,33 L36.1156031,33 L36.1156031,13.776413 C37.1640494,13.7117313 38,12.8405504 38,11.7672394 L38,9.02130141 C38,7.90655368 37.1009021,7 35.9953224,7 Z M25.1961243,27.4282827 L6.00935516,27.4282827 L6.00935516,13.7885408 L25.1961243,13.7885408 L25.1961243,27.4282827 Z M34.1109255,27.4282827 L27.2008019,27.4282827 L27.2008019,13.7885408 L34.1109255,13.7885408 L34.1109255,27.4282827 Z M35.9953224,11.5448962 L4.00467758,11.5448962 L4.00467758,9.02130141 L35.9953224,9.02130141 L35.9953224,11.5448962 Z M31.7494153,22.1375262 L29.5613097,22.1375262 L29.5613097,24.1588276 L31.7494153,24.1588276 L31.7494153,22.1375262 Z M31.7494153,17.0842727 L29.5613097,17.0842727 L29.5613097,19.1055741 L31.7494153,19.1055741 L31.7494153,17.0842727 Z" id="Shape" fill="#5C656B"></path>
        </g>
    </g>
</svg>