<?xml version="1.0" encoding="UTF-8"?>
<svg width="40px" height="40px" viewBox="0 0 40 40" version="1.1" xmlns="http://www.w3.org/2000/svg" xmlns:xlink="http://www.w3.org/1999/xlink">
    <!-- Generator: Sketch 60.1 (88133) - https://sketch.com -->
    <title>on_feature_20</title>
    <desc>Created with Sketch.</desc>
    <g id="on_feature_20" stroke="none" stroke-width="1" fill="none" fill-rule="evenodd">
        <g id="Group">
            <polygon id="Fill-1" points="0 40 40 40 40 0 0 0"></polygon>
            <path d="M36.0643893,17.2076229 L34.9299582,17.2076229 L34.9299582,6.7552658 C34.9299582,6.13941825 34.6989432,5.55667001 34.277218,5.111334 L31.8894077,2.60080241 C31.525682,2.21865597 31.0194151,2 30.4974195,2 L30.48464,2 C29.9577292,2.00401204 29.4494962,2.22968907 29.0867535,2.62086259 L26.7756205,5.12437312 C26.369624,5.56369107 26.1464733,6.13941825 26.1464733,6.74222668 L26.1464733,17.2076229 L24.4595724,17.2076229 L24.4595724,6.7552658 C24.4595724,6.13941825 24.2285574,5.55667001 23.8068321,5.111334 L21.4190219,2.60080241 C21.0552961,2.21865597 20.5490292,2 20.0270337,2 L20.0142541,2 C19.4873433,2.00401204 18.9791103,2.22968907 18.6163677,2.62086259 L16.3052347,5.12437312 C15.8992381,5.56369107 15.6760875,6.13941825 15.6760875,6.74222668 L15.6760875,17.2076229 L13.9891865,17.2076229 L13.9891865,6.7552658 C13.9891865,6.13941825 13.7581715,5.55667001 13.3364463,5.111334 L10.948636,2.60080241 C10.5849103,2.21865597 10.0786434,2 9.55664783,2 L9.54386827,2 C9.01794053,2.00501505 8.5087245,2.22968907 8.14598181,2.6218656 L5.83484886,5.12537613 C5.4288523,5.56469408 5.20570165,6.14042126 5.20570165,6.74322969 L5.20570165,17.2076229 L3.93561072,17.2076229 C2.86802654,17.2076229 2,18.0932798 2,19.1825476 L2,21.5085256 C2,22.5977934 2.86802654,23.4834504 3.93561072,23.4834504 L5.20570165,23.4834504 L5.20570165,38 L13.9891865,38 L13.9891865,23.4834504 L15.6760875,23.4834504 L15.6760875,38 L24.4595724,38 L24.4595724,23.4834504 L26.1464733,23.4834504 L26.1464733,38 L34.9299582,38 L34.9299582,23.4834504 L36.0643893,23.4834504 C37.1319735,23.4834504 38,22.5977934 38,21.5085256 L38,19.1825476 C38,18.0932798 37.1319735,17.2076229 36.0643893,17.2076229 Z M5.20570165,21.5075226 L3.96608503,21.5085256 L3.93561072,19.2136409 L5.20570165,19.2126379 L5.20570165,21.5075226 Z M12.0231015,35.9939819 L7.17178668,35.9939819 L7.17178668,6.74322969 C7.17178668,6.65295888 7.20521013,6.56569709 7.26615876,6.5005015 L9.53698697,3.99799398 L11.9238142,6.50752257 C11.987712,6.57472417 12.0231015,6.66198596 12.0231015,6.7552658 L12.0231015,35.9939819 Z M15.6760875,21.4974925 L13.9891865,21.4994985 L13.9891865,19.2036108 L15.6760875,19.2016048 L15.6760875,21.4974925 Z M22.4934873,35.9939819 L17.6421725,35.9939819 L17.6421725,6.74322969 C17.6421725,6.65295888 17.675596,6.56569709 17.7365446,6.5005015 L20.0073728,3.99799398 L22.3942,6.50752257 C22.4580978,6.57472417 22.4934873,6.66198596 22.4934873,6.7552658 L22.4934873,35.9939819 Z M26.1464733,21.4874624 L24.4595724,21.4894684 L24.4595724,19.1935807 L26.1464733,19.1915747 L26.1464733,21.4874624 Z M32.9638732,35.9939819 L28.1125584,35.9939819 L28.1125584,6.74322969 C28.1125584,6.65295888 28.1459818,6.56569709 28.2069304,6.5005015 L30.4777587,3.99799398 L32.8645859,6.50752257 C32.9284837,6.57472417 32.9638732,6.66198596 32.9638732,6.7552658 L32.9638732,35.9939819 Z M36.033915,21.4774323 L34.9299582,21.4784353 L34.9299582,19.1835507 L36.033915,19.1825476 L36.033915,21.4774323 Z M9.59793561,19.55667 C9.17031212,19.55667 8.82428115,19.9097292 8.82428115,20.3460381 C8.82428115,20.782347 9.17031212,21.1354062 9.59793561,21.1354062 C10.0255591,21.1354062 10.3715901,20.782347 10.3715901,20.3460381 C10.3715901,19.9097292 10.0245761,19.55667 9.59793561,19.55667 Z M20.0093389,19.55667 C19.5817154,19.55667 19.2356844,19.9097292 19.2356844,20.3460381 C19.2356844,20.782347 19.5817154,21.1354062 20.0093389,21.1354062 C20.4369624,21.1354062 20.7829934,20.782347 20.7829934,20.3460381 C20.7829934,19.9097292 20.4359794,19.55667 20.0093389,19.55667 Z M30.4207422,19.55667 C29.9931187,19.55667 29.6470877,19.9097292 29.6470877,20.3460381 C29.6470877,20.782347 29.9931187,21.1354062 30.4207422,21.1354062 C30.8483657,21.1354062 31.1943967,20.782347 31.1943967,20.3460381 C31.1943967,19.9097292 30.8473826,19.55667 30.4207422,19.55667 Z" id="Shape" fill="#5C656B"></path>
        </g>
    </g>
</svg>