<?xml version="1.0" encoding="UTF-8"?>
<svg width="40px" height="40px" viewBox="0 0 40 40" version="1.1" xmlns="http://www.w3.org/2000/svg" xmlns:xlink="http://www.w3.org/1999/xlink">
    <!-- Generator: Sketch 60.1 (88133) - https://sketch.com -->
    <title>on_feature_78</title>
    <desc>Created with Sketch.</desc>
    <g id="on_feature_78" stroke="none" stroke-width="1" fill="none" fill-rule="evenodd">
        <g id="Group">
            <polygon id="Fill-1" points="0 40 40 40 40 0 0 0"></polygon>
            <path d="M11.7866359,29.3482995 C12.337788,29.3482995 12.7850998,28.8989781 12.7850998,28.343106 L12.7850998,20.4091138 C12.7850998,19.8532417 12.337788,19.4039203 11.7866359,19.4039203 C11.2354839,19.4039203 10.788172,19.8532417 10.788172,20.4091138 L10.788172,28.3441112 C10.788172,28.8989781 11.2344854,29.3482995 11.7866359,29.3482995 Z M29.1029954,2 L10.8970046,2 C8.74431644,2 7,3.75707824 7,5.92327023 L7,32.5136539 C7,34.6808511 8.7453149,36.4369241 10.8970046,36.4369241 L12.0592166,36.4369241 L12.0592166,38 L14.0561444,38 L14.0561444,36.4369241 L25.9438556,36.4369241 L25.9438556,38 L27.9407834,38 L27.9407834,36.4369241 L29.1029954,36.4369241 C31.2556836,36.4369241 33,34.6798459 33,32.5136539 L33,5.92427542 C33,3.75707824 31.2556836,2 29.1029954,2 Z M31.0030722,32.5146591 C31.0030722,33.5691071 30.150384,34.4275423 29.1029954,34.4275423 L10.8970046,34.4275423 C9.84961598,34.4275423 8.9969278,33.5691071 8.9969278,32.5146591 L8.9969278,16.3059139 L31.0040707,16.3059139 L31.0040707,32.5146591 L31.0030722,32.5146591 Z M31.0030722,14.2955269 L12.7850998,14.2955269 L12.7850998,8.4945552 C12.7850998,7.9386832 12.337788,7.4893617 11.7866359,7.4893617 C11.2354839,7.4893617 10.788172,7.9386832 10.788172,8.4945552 L10.788172,14.2955269 L8.9969278,14.2955269 L8.9969278,5.92427542 C8.9969278,4.86982744 9.84961598,4.01139219 10.8970046,4.01139219 L29.1029954,4.01139219 C30.150384,4.01139219 31.0030722,4.86982744 31.0030722,5.92427542 L31.0030722,14.2955269 Z" id="Shape" fill="#5C656B"></path>
        </g>
    </g>
</svg>