<?xml version="1.0" encoding="UTF-8"?>
<svg width="40px" height="40px" viewBox="0 0 40 40" version="1.1" xmlns="http://www.w3.org/2000/svg" xmlns:xlink="http://www.w3.org/1999/xlink">
    <!-- Generator: Sketch 60.1 (88133) - https://sketch.com -->
    <title>on_feature_27</title>
    <desc>Created with Sketch.</desc>
    <g id="on_feature_27" stroke="none" stroke-width="1" fill="none" fill-rule="evenodd">
        <g id="Group">
            <polygon id="Fill-1" points="0 40 40 40 40 0 0 0"></polygon>
            <path d="M30.6619727,4.76863377 C28.9523388,2.93866631 26.6704803,2.00963678 23.9471339,2.00963678 L23.9431113,2.00963678 C23.7620912,1.99659425 19.4940403,1.74878616 16.3111041,4.85090204 C15.7449136,5.40270144 15.2561594,6.02673639 14.8357906,6.71197092 C9.8989711,7.1052534 6,11.2297031 6,16.2550907 L6,17.6135205 C6,17.8904234 6.22526942,18.1151563 6.50283352,18.1151563 L24.7064126,18.1151563 C24.9839767,18.1151563 25.2092461,17.8904234 25.2092461,17.6135205 L25.2092461,16.2550907 C25.2092461,11.528678 21.7577968,7.59986631 17.2393348,6.8223308 C17.3891792,6.64475172 17.5360066,6.46416282 17.700936,6.30263609 C20.2271716,3.82355189 23.7761705,4.00614733 23.8757316,4.0141735 C26.0851821,4.01517677 27.8722524,4.72749963 29.1866592,6.13107664 C32.3685897,9.5311642 31.9723569,15.9019391 31.9653172,16.0353742 L31.9653172,38 L33.9766513,38 L33.97464,16.1066065 C33.9937476,15.8106413 34.4382525,8.81282171 30.6619727,4.76863377 Z M23.1959007,16.1096163 L8.01233974,16.1096163 C8.07871377,12.6092016 10.539581,9.69068439 13.8240895,8.89910307 C14.3963141,8.76065159 14.9906633,8.68038986 15.6051259,8.68038986 C15.7589929,8.68038986 15.9088373,8.69443566 16.0596874,8.7034651 C19.9858115,8.93622412 23.1204756,12.1517097 23.1959007,16.1096163 Z M16.1069537,20.769813 L15.1012867,20.769813 C14.8237226,20.769813 14.5984532,20.9945459 14.5984532,21.2714488 L14.5984532,26.1523653 L16.6097872,26.1523653 L16.6097872,21.2714488 C16.6097872,20.9945459 16.3845178,20.769813 16.1069537,20.769813 Z M21.0598639,23.1475668 L20.0541968,23.1475668 C19.7766327,23.1475668 19.5513633,23.3722996 19.5513633,23.6492026 L19.5513633,28.5301191 L21.5626974,28.5301191 L21.5626974,23.6492026 C21.5626974,23.3722996 21.337428,23.1475668 21.0598639,23.1475668 Z M11.1540436,23.1475668 L10.1483765,23.1475668 C9.87081242,23.1475668 9.64554301,23.3722996 9.64554301,23.6492026 L9.64554301,28.5301191 L11.6568771,28.5301191 L11.6568771,23.6492026 C11.6568771,23.3722996 11.4316077,23.1475668 11.1540436,23.1475668 Z" id="Shape" fill="#5C656B"></path>
        </g>
    </g>
</svg>