<?xml version="1.0" encoding="UTF-8"?>
<svg width="40px" height="40px" viewBox="0 0 40 40" version="1.1" xmlns="http://www.w3.org/2000/svg" xmlns:xlink="http://www.w3.org/1999/xlink">
    <!-- Generator: Sketch 60.1 (88133) - https://sketch.com -->
    <title>on_feature_106</title>
    <desc>Created with Sketch.</desc>
    <g id="on_feature_106" stroke="none" stroke-width="1" fill="none" fill-rule="evenodd">
        <g id="Group">
            <polygon id="Fill-1" points="0 40 40 40 40 0 0 0"></polygon>
            <path d="M34.3976921,2 L5.64244502,2 L2,33.2466796 L2,35.6153376 C2,36.9267019 3.07667865,38 4.39217326,38 L35.6078267,38 C36.9283385,38 38,36.9327035 38,35.6153376 L38,33.2466796 L34.3976921,2 Z M35.5426039,29.4616282 L20.9798478,29.4616282 L20.9728238,27.7641567 L35.3469354,27.7641567 L35.5426039,29.4616282 Z M29.3323857,14.3244235 L30.1030186,23.1308697 L26.6893553,23.1308697 L26.1465005,14.3244235 L29.3323857,14.3244235 Z M24.6232963,14.3244235 L25.166151,23.1308697 L21.5247094,23.1308697 L21.4424283,14.3244235 L24.6232963,14.3244235 Z M35.1723388,26.2477355 L20.9668032,26.2477355 L20.9607827,24.6462906 L34.9887114,24.6462906 L35.1723388,26.2477355 Z M31.6302366,23.1308697 L30.8596036,14.3244235 L33.7986454,14.3244235 L34.8141149,23.1308697 L31.6302366,23.1308697 Z M20.8112718,12.8090025 L19.0091145,12.8090025 L19.071327,10.708419 L33.3812192,10.708419 L33.6230454,12.8090025 L20.8112718,12.8090025 Z M33.2066226,9.19199778 L19.1164813,9.19199778 L19.1786939,7.090414 L32.963793,7.090414 L33.2066226,9.19199778 Z M17.487917,12.8090025 L14.6702902,12.8090025 L15.246258,4.00155599 L17.7508153,4.00155599 L17.487917,12.8090025 Z M13.1470859,12.8090025 L10.4478635,12.8090025 L11.2716782,4.00155599 L13.7230538,4.00155599 L13.1470859,12.8090025 Z M17.5541433,14.3244235 L19.9212309,14.3244235 L19.9392926,16.21995 L6.00568609,16.21995 L6.22644034,14.3244235 L17.5541433,14.3244235 Z M19.9533406,17.7353709 L19.9714023,19.6308975 L5.60732503,19.6308975 L5.82807927,17.7353709 L19.9533406,17.7353709 Z M19.9854503,21.1463184 L20.003512,23.0408447 L5.20996739,23.0408447 L5.43072163,21.1463184 L19.9854503,21.1463184 Z M7.61317836,24.5572659 L6.81444937,32.4964712 L4.10820303,32.4964712 L5.03336399,24.5562656 L7.61317836,24.5562656 L7.61317836,24.5572659 Z M9.14039635,24.5572659 L11.4041308,24.5572659 L10.8984029,32.4974715 L8.34267079,32.4974715 L9.14039635,24.5572659 Z M12.9283385,24.5572659 L15.4278786,24.5572659 L15.1338741,32.4974715 L12.4226106,32.4974715 L12.9283385,24.5572659 Z M16.949076,24.5572659 L19.4405887,24.5572659 L19.4726984,32.4974715 L16.6560749,32.4974715 L16.949076,24.5572659 Z M20.991889,32.4964712 L20.9858684,30.9770492 L35.7182039,30.9770492 L35.8938038,32.4964712 L20.991889,32.4964712 Z M32.7891964,5.57499305 L19.2248516,5.57499305 L19.2720127,4.00055571 L32.6085793,4.00055571 L32.7891964,5.57499305 Z M9.74446024,4.00055571 L8.91964211,12.8090025 L6.40304373,12.8090025 L7.42955097,4.00155599 L9.74446024,4.00155599 L9.74446024,4.00055571 Z M35.6078267,36.0004446 L4.39217326,36.0004446 C4.18346016,36.0004446 4.00685676,35.8243957 4.00685676,35.6163379 L4.00685676,34.497027 L35.9931432,34.497027 L35.9931432,35.6163379 C35.9931432,35.8283968 35.8195501,36.0004446 35.6078267,36.0004446 Z" id="Shape" fill="#5C656B"></path>
        </g>
    </g>
</svg>