<?xml version="1.0" encoding="UTF-8"?>
<svg width="40px" height="40px" viewBox="0 0 40 40" version="1.1" xmlns="http://www.w3.org/2000/svg" xmlns:xlink="http://www.w3.org/1999/xlink">
    <!-- Generator: Sketch 60.1 (88133) - https://sketch.com -->
    <title>on_feature_100</title>
    <desc>Created with Sketch.</desc>
    <g id="on_feature_100" stroke="none" stroke-width="1" fill="none" fill-rule="evenodd">
        <g id="Group">
            <polygon id="Fill-1" points="0 40 40 40 40 0 0 0"></polygon>
            <path d="M28.5981259,10.6020675 L28.5981259,6.80893199 C28.5981259,4.70503514 26.9187588,3 24.8465347,3 L15.1554102,3 C13.083186,3 11.403819,4.70503514 11.403819,6.80893199 L11.403819,10.6020675 L9,27.5181486 L9,30.2795749 C9,32.3834717 10.679367,34.0885069 12.7515912,34.0885069 L12.9062058,34.0885069 L12.9062058,37 L14.8510431,37 L14.8510431,34.0885069 L25.1489569,34.0885069 L25.1489569,37 L27.0937942,37 L27.0937942,34.0885069 L27.2484088,34.0885069 C29.320633,34.0885069 31,32.3834717 31,30.2795749 L31,27.5181486 L28.5981259,10.6020675 Z M13.3321252,10.852837 L14.6954562,10.852837 C14.7547737,12.9044079 16.4078854,14.5581044 18.4431577,14.5581044 L21.5393388,14.5581044 C23.574611,14.5581044 25.2277228,12.9044079 25.2870403,10.852837 L26.6678748,10.852837 L26.6717645,10.8834427 L27.3592645,15.7221093 L12.6407355,15.7221093 L13.3282355,10.8834427 L13.3321252,10.852837 Z M16.6295969,10.7422615 C16.6295969,9.72733608 17.4435113,8.90098147 18.4441301,8.90098147 L21.5403112,8.90098147 C22.5399576,8.90098147 23.353872,9.72733608 23.353872,10.7422615 C23.353872,10.7797782 23.3451202,10.8153203 23.3431754,10.852837 C23.2858027,11.8154364 22.5030057,12.5835414 21.5403112,12.5835414 L18.4441301,12.5835414 C17.4814356,12.5835414 16.6986386,11.8154364 16.6412659,10.852837 C16.6383487,10.8163076 16.6295969,10.7807654 16.6295969,10.7422615 Z M15.1554102,4.97456298 L24.8465347,4.97456298 C25.8432638,4.97456298 26.6532885,5.79795575 26.6532885,6.80893199 L26.6532885,8.87926128 L24.7998586,8.87926128 C24.1541726,7.72019281 22.9425389,6.92641849 21.5403112,6.92641849 L18.4441301,6.92641849 C17.0419024,6.92641849 15.8302687,7.72019281 15.1845827,8.87926128 L13.3486554,8.87926128 L13.3486554,6.80893199 C13.3476839,5.79696847 14.158681,4.97456298 15.1554102,4.97456298 Z M12.3606789,17.6966723 L27.6412659,17.6966723 L28.9170792,26.6819211 L11.0838932,26.6819211 L12.3606789,17.6966723 Z M27.2493812,32.1139439 L12.7525636,32.1139439 C11.7558345,32.1139439 10.9458098,31.2905511 10.9458098,30.2795749 L10.9458098,28.6564841 L29.0561351,28.6564841 L29.0561351,30.2795749 C29.0561351,31.2905511 28.2451379,32.1139439 27.2493812,32.1139439 Z" id="Shape" fill="#5C656B"></path>
        </g>
    </g>
</svg>