<?xml version="1.0" encoding="UTF-8"?>
<svg width="40px" height="40px" viewBox="0 0 40 40" version="1.1" xmlns="http://www.w3.org/2000/svg" xmlns:xlink="http://www.w3.org/1999/xlink">
    <!-- Generator: Sketch 60.1 (88133) - https://sketch.com -->
    <title>on_feature_24</title>
    <desc>Created with Sketch.</desc>
    <g id="on_feature_24" stroke="none" stroke-width="1" fill="none" fill-rule="evenodd">
        <g id="Group">
            <polygon id="Fill-1" points="0 40 40 40 40 0 0 0"></polygon>
            <path d="M34.0754148,2 L5.92458522,2 C3.75666164,2 2,3.75526485 2,5.91922122 L2,34.0807788 C2,36.2457393 3.75766717,38 5.92458522,38 L34.0754148,38 C36.2433384,38 38,36.2447352 38,34.0807788 L38,5.92022538 C38,3.75526485 36.2433384,2 34.0754148,2 Z M35.9889392,34.0807788 C35.9889392,35.1341385 35.1302162,35.9916878 34.0754148,35.9916878 L5.92458522,35.9916878 C4.86978381,35.9916878 4.01106083,35.1341385 4.01106083,34.0807788 L4.01106083,5.92022538 C4.01106083,4.86686564 4.86978381,4.00931634 5.92458522,4.00931634 L34.0754148,4.00931634 C35.1302162,4.00931634 35.9889392,4.86686564 35.9889392,5.92022538 L35.9889392,34.0807788 Z M31.6400201,18.7613735 C31.6400201,18.7613735 30.6857717,18.996346 29.0216189,19.2524058 L29.0196078,12.2715126 C29.0387129,12.003403 29.1633987,9.61250732 27.7868276,8.13639787 C27.1271996,7.43047614 26.2192056,7.05592592 25.2217195,7.05592592 L25.2146807,7.05592592 C25.1452991,7.04990098 23.5062846,6.95450615 22.2865762,8.14543527 C21.984917,8.43965301 21.7576672,8.79914089 21.5656109,9.18574098 C21.4700855,9.17871189 21.3785822,9.15662046 21.2820513,9.15662046 C19.2388135,9.15662046 17.5766717,10.8164905 17.5766717,12.8579398 L17.5766717,14.02979 L24.9874309,14.02979 L24.9874309,12.8579398 C24.9874309,11.5545452 24.3056812,10.4118156 23.2830568,9.75208502 C23.3574661,9.63861538 23.4308698,9.52414159 23.5233786,9.43175923 C24.1618904,8.79713258 25.0970337,8.83729882 25.1553544,8.83629466 C25.7224736,8.83629466 26.1558572,9.00398873 26.4786325,9.34941843 C27.2016088,10.1206103 27.2730015,11.6308611 27.2378079,12.209255 L27.2378079,19.4944074 C25.3926596,19.7133134 23.0548014,19.8960698 20.3650075,19.8960698 C20.2383107,19.8960698 20.1116139,19.8960698 19.982906,19.8950657 C12.1146305,19.8448579 8.36199095,18.7623776 8.36199095,18.7623776 C7.69834087,18.7623776 7.16138763,19.3026136 7.1653873,19.9653566 L7.17647059,22.8091267 C7.18149824,23.4658447 7.71543489,23.995035 8.37305178,23.995035 L8.52589241,25.4329865 L8.79839115,27.5005439 C9.01055807,29.2216675 10.1598793,29.7428245 11.2317748,30.029009 L11.2317748,32.0594126 L13.0165913,32.0594126 L13.0165913,30.3965301 C14.0191051,30.5190371 15.9255907,30.659619 19.4007039,30.659619 C19.5515334,30.659619 19.7053796,30.659619 19.8612368,30.6586148 C23.8853695,30.6445566 25.9768728,30.518033 27.0316742,30.4136007 L27.0316742,32.0604167 L28.8164907,32.0604167 L28.8164907,30.1254079 C30.1226747,29.8352068 30.925088,29.2708711 31.2237305,27.526652 L31.5455003,24.7511645 L31.6289593,23.9940308 C32.2865762,23.9940308 32.8205128,23.4638364 32.8255405,22.8071184 L32.8366238,19.9633483 C32.8406234,19.3006053 32.3036702,18.7613735 31.6400201,18.7613735 Z M19.4610357,12.2464087 C19.6953243,11.5505286 20.3267974,11.0534713 21.0789341,10.9711305 C21.1473102,10.9641014 21.2096531,10.9389975 21.2800402,10.9389975 C21.9205631,10.9389975 22.4866767,11.2553067 22.8355958,11.7383058 C22.9472097,11.8929458 23.0387129,12.0626482 23.1000503,12.2464087 L19.4610357,12.2464087 Z M29.7717446,24.5463167 L29.456008,27.2726005 C29.3001508,28.170316 29.2016088,28.2978439 27.7737557,28.5047 C27.6349925,28.5247831 27.6329814,28.5117291 27.5274007,28.5549078 C27.2217195,28.6101364 25.5455003,28.8561546 19.8541981,28.8762378 L19.3996983,28.8772419 C14.4424334,28.8772419 12.8647562,28.5890491 12.5771745,28.5257873 C12.5037707,28.4926501 12.5188537,28.5077125 12.4122675,28.4826086 L12.2151835,28.4374216 C10.8858723,28.1331623 10.6556058,27.9714931 10.5681247,27.269588 L10.3006536,25.2452093 L10.2151835,24.4428886 C12.1065862,24.8194472 15.2156863,25.2211096 19.9768728,25.243201 C20.1146305,25.2442052 20.2513826,25.2442052 20.3861237,25.2442052 C25.1352438,25.2442052 28.1035696,24.8475635 29.7757667,24.5111712 L29.7717446,24.5463167 Z M31.0417295,22.3090569 C30.9824032,22.3301442 30.9331322,22.367298 30.8768225,22.393406 L30.875817,22.3903936 C30.8466566,22.4014393 27.9115133,23.4467658 19.9859226,23.4568073 C13.3453997,23.4266827 10.066365,22.637416 8.96028155,22.2990154 L8.95424837,20.7265069 C10.6334842,21.0689242 14.263449,21.6382807 19.9708396,21.6744303 L20.364002,21.6754344 C25.4268477,21.6754344 29.2961287,21.0528577 31.0487682,20.7094363 L31.0417295,22.3090569 Z M20.7762695,15.2528521 L20.7762695,17.27221 L21.7868276,17.27221 L21.7868276,15.2528521 L20.7762695,15.2528521 Z M22.6314731,16.1445427 L22.6314731,18.1639006 L23.6420312,18.1639006 L23.6420312,16.1445427 L22.6314731,16.1445427 Z M18.9200603,16.1445427 L18.9200603,18.1639006 L19.9306184,18.1639006 L19.9306184,16.1445427 L18.9200603,16.1445427 Z" id="Shape" fill="#5C656B"></path>
        </g>
    </g>
</svg>