<?xml version="1.0" encoding="UTF-8"?>
<svg width="40px" height="40px" viewBox="0 0 40 40" version="1.1" xmlns="http://www.w3.org/2000/svg" xmlns:xlink="http://www.w3.org/1999/xlink">
    <!-- Generator: Sketch 60.1 (88133) - https://sketch.com -->
    <title>on_feature_35</title>
    <desc>Created with Sketch.</desc>
    <g id="on_feature_35" stroke="none" stroke-width="1" fill="none" fill-rule="evenodd">
        <g id="Group">
            <polygon id="Fill-1" points="0 40 40 40 40 0 0 0"></polygon>
            <path d="M11.0982048,2 C6.63489564,2 3.00389384,5.74143215 3.00389384,10.3404848 L3.00778767,19.9448314 L3,19.9448314 L3,23.800613 L3.60451799,24.0563945 C3.63956252,24.0714405 3.79142211,24.1326275 4.03673376,24.2198941 L4.03673376,30.7247701 C4.03673376,34.7360267 7.20436911,38 11.0972314,38 C14.9900936,38 18.157729,34.7360267 18.157729,30.7247701 L18.157729,24.1757593 C18.2677298,24.1426581 18.3709165,24.1225968 18.4818908,24.0884926 L19.1720732,23.8708275 L19.1720732,23.8678183 L19.1925158,23.877849 L19.1925158,10.3404848 C19.1925158,5.74143215 15.561514,2 11.0982048,2 Z M15.8360294,30.7237671 C15.8360294,33.4169964 13.7109686,35.6066871 11.0982048,35.6066871 C8.48544106,35.6066871 6.35940676,33.4159933 6.35940676,30.7237671 L6.35940676,22.5969351 C7.46428265,22.3882976 9.07048988,22.2017275 11.2228076,22.240847 C13.285567,22.2578991 14.7963753,22.4444692 15.8360294,22.642073 L15.8360294,30.7237671 Z M17.0051536,20.5847868 C16.6741776,20.5055447 16.2818736,20.4252995 15.8360294,20.3500697 C14.7038967,20.1594873 13.1960088,20.0020061 11.2403298,19.9859571 C11.1420105,19.984954 11.0446646,19.984954 10.9482922,19.984954 C9.02668423,19.984954 7.50711484,20.139426 6.35940676,20.3290053 C5.91550949,20.402229 5.52223208,20.479465 5.19028259,20.555698 L5.19028259,10.3404848 C5.19028259,6.98422959 7.84003779,4.25488994 11.0972314,4.25488994 C14.3544249,4.25488994 17.0041801,6.98523266 17.0041801,10.3404848 L17.0041801,20.5847868 L17.0051536,20.5847868 Z M28.9047155,2 L28.9047155,2 C24.4414064,2 20.8104046,5.74143215 20.8104046,10.3404848 L20.8142984,19.9448314 L20.8065107,19.9448314 L20.8065107,23.800613 L21.4110287,24.0563945 C21.4460732,24.0714405 21.5979328,24.1336305 21.8442179,24.2198941 L21.8442179,30.7247701 C21.8442179,34.7360267 25.0118533,38 28.9047155,38 C32.7975778,38 35.9652132,34.7360267 35.9652132,30.7247701 L35.9652132,24.1757593 C36.075214,24.1426581 36.1784007,24.1225968 36.289375,24.0884926 L36.9795574,23.8708275 L36.9795574,23.8678183 L37,23.877849 L37,10.3404848 C36.9990265,5.74143215 33.3680247,2 28.9047155,2 Z M33.6425402,30.7237671 C33.6425402,33.4169964 31.5165059,35.6066871 28.9037421,35.6066871 C26.2909783,35.6066871 24.1659175,33.4159933 24.1659175,30.7237671 L24.1659175,22.5969351 C25.2698199,22.3893006 26.8760271,22.2027306 29.0293183,22.240847 C31.0920778,22.2578991 32.6038595,22.4444692 33.6425402,22.6430761 L33.6425402,30.7237671 L33.6425402,30.7237671 Z M34.8116643,20.5847868 C34.4816618,20.5055447 34.0883843,20.4252995 33.6425402,20.3500697 C32.5104074,20.1594873 31.0025195,20.0020061 29.0468406,19.9859571 C28.9485212,19.984954 28.8511753,19.984954 28.7548029,19.984954 C26.8331949,19.984954 25.3136256,20.139426 24.1659175,20.3290053 C23.7220202,20.402229 23.3287428,20.479465 22.9967933,20.555698 L22.9967933,10.3404848 C22.9967933,6.98422959 25.6465485,4.25488994 28.9037421,4.25488994 C32.1609357,4.25488994 34.8106909,6.98523266 34.8106909,10.3404848 L34.8106909,20.5847868 L34.8116643,20.5847868 Z" id="Shape" fill="#5C656B"></path>
        </g>
    </g>
</svg>