<?xml version="1.0" encoding="UTF-8"?>
<svg width="40px" height="40px" viewBox="0 0 40 40" version="1.1" xmlns="http://www.w3.org/2000/svg" xmlns:xlink="http://www.w3.org/1999/xlink">
    <!-- Generator: Sketch 60.1 (88133) - https://sketch.com -->
    <title>on_feature_32</title>
    <desc>Created with Sketch.</desc>
    <g id="on_feature_32" stroke="none" stroke-width="1" fill="none" fill-rule="evenodd">
        <g id="Group">
            <polygon id="Fill-1" points="0 40 40 40 40 0 0 0"></polygon>
            <path d="M26.250376,8.0556192 C22.541613,8.0556192 19.5248582,11.0923571 19.5248582,14.8234371 C19.5248582,18.5545172 22.541613,21.591255 26.250376,21.591255 C29.9591391,21.591255 32.9758939,18.5545172 32.9758939,14.8234371 C32.9758939,11.0923571 29.9591391,8.0556192 26.250376,8.0556192 Z M26.250376,19.5728184 C23.6478233,19.5728184 21.5306792,17.4423586 21.5306792,14.8234371 C21.5306792,12.2045156 23.6478233,10.0740558 26.250376,10.0740558 C28.8529288,10.0740558 30.9700729,12.2045156 30.9700729,14.8234371 C30.9700729,17.4423586 28.8529288,19.5728184 26.250376,19.5728184 Z M37.8690942,13.0371207 C37.2161995,8.57637584 33.9577433,4.84226814 29.6733096,3.52321982 C27.2522836,2.7774075 24.9385691,2.87832933 22.8535182,3.51413685 L22.843489,3.47881421 L2.3630536,9.41503625 C2.14843075,9.47760778 2,9.67541457 2,9.89946103 L2,20.3862484 C2,20.6173594 2.15545113,20.8181938 2.37809726,20.87471 L19.0865863,25.1578325 L17.5611594,30.2836522 C17.162001,31.6148112 17.3014056,33.0236799 17.9553032,34.2498801 C18.608198,35.4760804 19.6973588,36.3732754 21.0212007,36.7739351 C21.5156355,36.9243086 22.0211024,37 22.5245635,37 C23.3660054,37 24.1994241,36.7910918 24.9626389,36.3793307 C26.1811752,35.7223296 27.0717597,34.6273278 27.471921,33.292132 L29.5980913,26.1488849 C34.980712,24.5371632 38.7626875,19.1428914 37.8690942,13.0371207 Z M25.8010721,32.788532 C25.5363038,33.6715981 24.9455895,34.397226 24.1382465,34.8332083 C23.3299006,35.2691906 22.4022084,35.3610295 21.5256646,35.0956051 L21.5256646,35.0956051 C19.7144083,34.5455811 18.6854221,32.6149465 19.2330112,30.7892706 L20.7794992,25.5917964 L22.9909169,26.158977 C23.2596969,26.2376961 23.5304827,26.3083413 23.8062831,26.3678852 L23.9557168,26.4062355 L23.9577226,26.3961433 C24.7018822,26.5465169 25.4640942,26.644411 26.2513789,26.644411 C26.7277614,26.644411 27.1951177,26.60707 27.6574595,26.551563 L25.8010721,32.788532 Z M29.780621,23.9508074 C28.6844398,24.3817436 27.4969938,24.6269837 26.250376,24.6269837 C26.1240093,24.6269837 26.0036601,24.6037716 25.8782962,24.5987255 C24.2706307,24.5371632 22.7702766,24.0799873 21.4534551,23.3220644 C20.9199067,23.015262 20.4104282,22.6711186 19.9460806,22.2704589 C18.9351468,21.4005128 18.0967136,20.333769 17.5039935,19.1206886 C17.419749,18.9491215 17.2512601,18.8370983 17.0607071,18.8370983 L15.9595113,18.8370983 C15.6034781,18.8370983 15.3477359,19.2064722 15.4901492,19.5344681 C15.996619,20.6980968 16.6856185,21.7628221 17.5170313,22.6963491 L4.38391827,19.3094124 C4.16227505,19.251887 4.00682392,19.0510526 4.00682392,18.8209508 L4.00682392,11.420353 C4.00682392,11.1952973 4.15425177,10.9974905 4.36987753,10.9359282 L17.2933823,7.18870068 C16.1550789,8.54004398 15.3106282,10.1497472 14.865336,11.9189068 C14.786106,12.2347922 15.0358308,12.5415945 15.3597709,12.5415945 L16.4068094,12.5415945 C16.6304585,12.5415945 16.8200085,12.3892026 16.8811861,12.1722206 C18.1157689,7.76092745 22.3370192,4.59601887 27.2051468,5.06530538 C31.6640869,5.49422316 35.350786,9.07896655 35.9144217,13.5518221 C36.504133,18.2376226 33.7772194,22.3804637 29.780621,23.9508074 Z" id="Shape" fill="#5C656B"></path>
        </g>
    </g>
</svg>