<?xml version="1.0" encoding="UTF-8"?>
<svg width="40px" height="40px" viewBox="0 0 40 40" version="1.1" xmlns="http://www.w3.org/2000/svg" xmlns:xlink="http://www.w3.org/1999/xlink">
    <!-- Generator: Sketch 60.1 (88133) - https://sketch.com -->
    <title>on_feature_73</title>
    <desc>Created with Sketch.</desc>
    <g id="on_feature_73" stroke="none" stroke-width="1" fill="none" fill-rule="evenodd">
        <g id="Group">
            <rect id="Rectangle" x="0" y="0" width="40" height="40"></rect>
            <path d="M33.5760574,22.5561092 C34.0740773,23.0181231 34.6976062,23.2656663 35.3512573,23.2656663 C35.4135098,23.2656663 35.4767663,23.2636619 35.5400229,23.2586509 C37.0340824,23.1514156 38,21.9106929 38,20.1017232 L38,13.607472 C38,10.9456307 35.8301998,8.77987807 33.1633837,8.77987807 L30.3861197,8.77987807 C28.7414493,4.80615796 24.820547,2 20.252018,2 L18.9557607,2 C15.2447094,2 11.9644052,3.85406865 9.98035834,6.67926839 L4.53929054,6.67926839 C3.59546258,6.67926839 2.73497261,7.19740542 2.29418487,8.03223741 C1.85440121,8.8660672 1.9126374,9.86626208 2.43575907,10.6289357 L7.99329926,19.049414 L7.99329926,30.888394 L6.06347229,30.888394 L6.89685231,35.7199967 C7.12578079,37.0408953 8.2021463,38 9.45723668,38 L29.973446,38 C31.2285364,38 32.305906,37.0408953 32.5338304,35.7199967 L32.5458793,35.6488405 L37.9126457,35.6488405 L37.9126457,33.644442 L32.8922842,33.644442 L33.3672104,30.888394 L31.2134753,30.888394 L31.2134753,14.105565 L32.1352137,14.1075694 C32.4253906,14.1075694 32.6603435,14.342084 32.6603435,14.6307174 L32.6603435,20.4544974 C32.6603435,21.2502436 32.9946996,22.016926 33.5760574,22.5561092 Z M10.0335742,12.9410094 C10.0335742,11.399627 10.4291787,9.94844242 11.1219886,8.68266474 C11.5256256,7.94504607 12.0326821,7.27156816 12.6200644,6.6782662 C14.2376249,5.04768798 16.4797184,4.03446452 18.9547566,4.03446452 L20.2510139,4.03446452 C23.6648597,4.03446452 26.6328975,5.95968932 28.1329815,8.77787367 C28.4663335,9.40525041 28.7203638,10.0777261 28.8970805,10.7822722 C29.0045162,11.2102113 29.0878542,11.6481724 29.1300253,12.0981599 C29.1561312,12.375769 29.1732004,12.6563848 29.1732004,12.9410094 L29.1732004,30.8863896 L10.0335742,30.8863896 L10.0335742,12.9410094 Z M7.99329926,15.4044152 L4.10251909,9.50947913 C3.9388553,9.27296011 4.02520552,9.04946967 4.07038878,8.96428273 C4.11557203,8.88009799 4.25112179,8.68266474 4.53929054,8.68266474 L8.85780551,8.68266474 C8.30054538,9.99253918 7.99329926,11.4316973 7.99329926,12.9410094 L7.99329926,15.4044152 Z M30.9534206,33.6945519 L30.6602315,35.3952841 C30.5899464,35.8041814 30.3007736,36.1018346 29.973446,36.1018346 L9.45723668,36.1018346 C9.1299091,36.1018346 8.84073628,35.8041814 8.77045122,35.3952841 L8.47726211,33.6945519 L8.31962276,32.7835528 L31.1110599,32.7835528 L30.9534206,33.6945519 Z M32.1362178,12.1031708 C31.8259594,12.1031708 31.50064,12.1021686 31.1703002,12.1021686 C31.1361617,11.6551878 31.0829459,11.2132179 30.9965957,10.7832744 L33.1613756,10.7832744 C34.7217039,10.7832744 35.9898473,12.0500543 35.9898473,13.6064698 L35.9898473,20.100721 C35.9898473,20.5176359 35.9125337,21.2211798 35.3924242,21.2592634 C35.1845813,21.2692854 35.0349745,21.1740764 34.9415958,21.0868851 C34.7698994,20.9275354 34.667484,20.6900142 34.667484,20.4534952 L34.667484,14.6297152 C34.6684881,13.2376604 33.5318783,12.1031708 32.1362178,12.1031708 Z M27.9422078,35.3371565 C28.4422358,35.3371565 28.847881,34.932268 28.847881,34.4331728 C28.847881,33.9340776 28.4422358,33.5291891 27.9422078,33.5291891 C27.4421797,33.5291891 27.0365345,33.9340776 27.0365345,34.4331728 C27.0365345,34.9332702 27.4421797,35.3371565 27.9422078,35.3371565 Z" id="Shape" fill="#5C656B"></path>
        </g>
    </g>
</svg>