<?xml version="1.0" encoding="UTF-8"?>
<svg width="40px" height="40px" viewBox="0 0 40 40" version="1.1" xmlns="http://www.w3.org/2000/svg" xmlns:xlink="http://www.w3.org/1999/xlink">
    <!-- Generator: Sketch 60.1 (88133) - https://sketch.com -->
    <title>on_feature_41</title>
    <desc>Created with Sketch.</desc>
    <g id="on_feature_41" stroke="none" stroke-width="1" fill="none" fill-rule="evenodd">
        <g id="Group">
            <polygon id="Fill-1" points="0 40 40 40 40 0 0 0"></polygon>
            <path d="M34.9949933,6.61096097 L33.9646195,6.61096097 L33.9646195,6.54877267 L33.9646195,6.4083475 C33.9646195,3.97798891 31.990988,2 29.564753,2 L28.1328438,2 L12.0053405,2 L10.7096128,2 C8.16722296,2 6.10146862,4.00908306 6.07543391,6.54877267 L5.00400534,6.54877267 C3.34779706,6.54877267 2,7.89986348 2,9.55888663 C2,11.2179098 3.34779706,12.5690006 5.00400534,12.5690006 L6.07042724,12.5690006 L6.07042724,38 L28.1338451,38 L28.1338451,34.5294921 L33.9656208,34.5294921 L33.9656208,12.5690006 L34.9959947,12.5690006 C36.6522029,12.5690006 38,11.2179098 38,9.55888663 C38,7.89986348 36.6522029,6.61096097 34.9949933,6.61096097 Z M5.00300401,10.5629266 C4.45026702,10.5629266 4.00166889,10.112563 4.00166889,9.55888663 C4.00166889,9.00521022 4.45126836,8.55484662 5.00300401,8.55484662 L6.0694259,8.55484662 L6.0694259,10.5629266 L5.00300401,10.5629266 Z M26.1311749,35.9949291 L8.07309746,35.9949291 L8.07309746,12.5690006 L8.07309746,10.5629266 L8.07309746,8.55484662 L8.07309746,6.59591541 C8.07309746,6.57986682 8.0771028,6.56482126 8.07810414,6.54877267 C8.10413885,5.1144298 9.27169559,3.9017581 10.7096128,3.9017581 L12.0053405,3.9017581 L13.9038718,3.9017581 L28.1328438,3.9017581 L29.564753,3.9017581 C30.9435915,3.9017581 32.0660881,5.02616255 32.0660881,6.40734446 L32.0660881,6.54877267 L32.0660881,6.60995793 L29.6829105,6.60594578 L29.6829105,6.60694882 C29.1101469,6.60694882 28.5934579,6.7313254 28.1338451,6.94998746 C27.7863818,7.11448553 27.4679573,7.3281324 27.2016021,7.60998579 C26.4195594,8.4405004 26.2052737,9.54384107 26.1491989,10.220891 C26.1391856,10.3372433 26.1331776,10.437547 26.1301736,10.5238082 C26.1271696,10.654203 26.1281709,10.7484885 26.1301736,10.7916191 L26.1301736,32.627734 L26.1301736,34.5294921 L26.1301736,35.9949291 L26.1311749,35.9949291 Z M32.0660881,32.627734 L28.1338451,32.627734 L28.1338451,12.5690006 L32.0660881,12.5690006 L32.0660881,32.627734 Z M34.9949933,10.5629266 L33.9646195,10.5629266 L32.0660881,10.5629266 L28.1518692,10.5629266 L28.1518692,10.3402524 L28.1518692,9.55888663 C28.1518692,9.00521022 28.6014686,8.55484662 29.1532043,8.55484662 L29.6819092,8.55484662 L32.0650868,8.55484662 L33.9636182,8.55484662 L34.993992,8.55484662 C35.546729,8.55484662 35.9953271,9.00521022 35.9953271,9.55888663 C35.9953271,10.112563 35.5477303,10.5629266 34.9949933,10.5629266 Z" id="Shape" fill="#5C656B"></path>
        </g>
    </g>
</svg>