<?xml version="1.0" encoding="UTF-8"?>
<svg width="40px" height="40px" viewBox="0 0 40 40" version="1.1" xmlns="http://www.w3.org/2000/svg" xmlns:xlink="http://www.w3.org/1999/xlink">
    <!-- Generator: Sketch 60.1 (88133) - https://sketch.com -->
    <title>on_feature_1</title>
    <desc>Created with Sketch.</desc>
    <g id="on_feature_1" stroke="none" stroke-width="1" fill="none" fill-rule="evenodd">
        <g id="Group">
            <polygon id="Fill-1" points="0 40 40 40 40 0 0 0"></polygon>
            <path d="M26.4364487,22.2892925 C26.3031079,22.2113676 26.1497159,22.1574196 26.0304111,22.0195526 C26.6179124,21.8647019 27.1853626,21.7118493 27.7538153,21.566989 C27.9021945,21.5290256 27.9763841,21.4900632 27.9132227,21.3082385 C27.8089562,21.0075285 27.7267461,20.6988261 27.6595745,20.3871267 C27.619472,20.204303 27.5633285,20.1573483 27.369834,20.2102972 C26.3903308,20.4840333 25.4068174,20.7397866 24.4253091,21.0055304 C24.3290632,21.0315053 24.2508633,21.0345024 24.1586276,20.9815535 C23.3044447,20.4850323 22.4482567,19.9915082 21.5880584,19.5039783 C21.4236382,19.4110679 21.4266459,19.3681093 21.5880584,19.277197 C22.4352233,18.7966604 23.2783781,18.3101295 24.1205302,17.8196025 C24.2298095,17.7556642 24.3240504,17.7466729 24.4473655,17.7796411 C25.4348892,18.0483819 26.4264231,18.3051343 27.4139468,18.5758733 C27.5693439,18.6188318 27.6154617,18.5778713 27.6495488,18.4350091 C27.7277487,18.1113212 27.8119639,17.7886324 27.910215,17.4709387 C27.9563329,17.3210832 27.9372842,17.2521497 27.7718614,17.2171834 C27.4811184,17.1552432 27.1943857,17.0713241 26.9066503,16.9953973 C26.618915,16.9184715 26.3311797,16.8395476 26.0023393,16.7496343 C26.1076083,16.6846969 26.1667595,16.6447354 26.2289183,16.6087701 C26.9026401,16.2201449 27.5753593,15.8295215 28.2520887,15.4468905 C28.3784115,15.3749599 28.4165089,15.3180148 28.3302885,15.1821458 C28.152835,14.9004175 27.9803943,14.6126949 27.8290075,14.315981 C27.7437897,14.1491419 27.6665924,14.1621294 27.530244,14.2460485 C27.2144369,14.4398616 26.8896068,14.6196882 26.5687869,14.8045099 C26.1567339,15.0412816 25.7436783,15.2770543 25.2925253,15.5358048 C25.3236048,15.4199165 25.3426534,15.351982 25.3606996,15.2840475 C25.4980506,14.7665465 25.6313913,14.2470475 25.7757603,13.7315446 C25.8088448,13.6156563 25.7978166,13.5697006 25.6694887,13.5397295 C25.3306227,13.4588076 24.9947644,13.3648981 24.6609112,13.2649945 C24.512532,13.2200378 24.4503732,13.2490099 24.4082656,13.4078567 C24.1526122,14.3879117 23.8839256,15.3649695 23.6262671,16.3450244 C23.59218,16.4748992 23.5300212,16.5578192 23.4117188,16.6237557 C22.9746018,16.8685196 22.5424975,17.124273 22.1073855,17.3740322 C21.6492147,17.6367788 21.1900412,17.8975274 20.6977832,18.1782567 L20.6977832,17.8915332 C20.6977832,16.9554358 20.7007909,16.0193385 20.693773,15.0832412 C20.6927704,14.9323866 20.7388883,14.8284868 20.8451599,14.723588 C21.5649994,14.014272 22.2768185,13.2979627 22.9966581,12.5886467 C23.1009246,12.4857459 23.1189707,12.4218075 23.0026735,12.3129125 C22.7420074,12.0701466 22.4913668,11.8163913 22.243734,11.560638 C22.163529,11.478717 22.1204188,11.4777179 22.0372062,11.562636 C21.6502172,11.9572555 21.2552078,12.3438827 20.8612008,12.7305099 C20.8190932,12.7724694 20.7900189,12.8414029 20.6957781,12.8334106 C20.6957781,12.7594819 20.6957781,12.6885503 20.6957781,12.6176187 C20.6957781,11.8483605 20.6927704,11.0791023 20.7007909,10.3098441 C20.702796,10.1489992 20.6606884,10.0960502 20.4942631,10.1020445 C20.1523894,10.1150319 19.8095132,10.1110358 19.4676395,10.1030435 C19.3342988,10.1000464 19.2921912,10.1400078 19.2941963,10.2748778 C19.3022168,10.6954722 19.297204,11.1160667 19.297204,11.5376601 C19.297204,11.9772362 19.297204,12.4158133 19.297204,12.898348 C19.2300323,12.8354087 19.1949426,12.8034395 19.159853,12.7694723 C18.7678512,12.379848 18.3728417,11.9942199 17.9868553,11.5986013 C17.8855965,11.4947015 17.8254428,11.4717237 17.715161,11.5906091 C17.4885819,11.835373 17.2519773,12.0731438 17.0043444,12.297927 C16.8700011,12.4198095 16.8960677,12.489742 17.0123649,12.6046312 C17.7332071,13.3129482 18.4440236,14.0302565 19.1638632,14.7395726 C19.2591066,14.833482 19.3012142,14.9253934 19.3002117,15.0612624 C19.2941963,15.9174368 19.297204,16.7736112 19.297204,17.6297856 L19.297204,18.1682663 C19.2470759,18.1462875 19.2210092,18.1382952 19.1979503,18.1243087 C18.3156957,17.6177971 17.4344436,17.1082884 16.5501838,16.605773 C16.4429097,16.5448318 16.4018046,16.4589146 16.3727303,16.3500196 C16.1110616,15.3709637 15.8443801,14.3939059 15.5867216,13.4138509 C15.5476217,13.2659935 15.5005013,13.2130446 15.3390888,13.2629964 C14.9992202,13.3688943 14.6543389,13.4578085 14.3094575,13.5447247 C14.2092013,13.5697006 14.1791244,13.5986727 14.212209,13.7055696 C14.2904088,13.961323 14.3545728,14.2220716 14.422747,14.4808221 C14.511975,14.8174974 14.6002005,15.1541728 14.7014593,15.5378028 C13.9224685,15.0902344 13.1905982,14.6736361 12.4637407,14.2470475 C12.3243845,14.1651265 12.2491924,14.1501409 12.1639746,14.314982 C12.0115852,14.6116959 11.840147,14.8994184 11.6636961,15.1821458 C11.5794809,15.3170157 11.613568,15.3749599 11.7408934,15.4468905 C12.4045895,15.8225283 13.0642754,16.2061583 13.7249638,16.5887894 C13.8031636,16.633746 13.9014147,16.6567239 13.9505403,16.7566275 C13.8913891,16.7766083 13.8382533,16.797588 13.784115,16.8115746 C13.2718057,16.9474435 12.7604991,17.0893067 12.2451821,17.2121882 C12.0687312,17.2541478 12.0336415,17.3190852 12.0867773,17.4889214 C12.1870335,17.806615 12.2692436,18.1293039 12.348446,18.4529918 C12.3825331,18.5908588 12.4346664,18.6148357 12.5750251,18.5758733 C13.5545282,18.3061334 14.5390442,18.05038 15.51955,17.7836372 C15.6558984,17.7466729 15.7641751,17.7556642 15.8864877,17.8265958 C16.7276373,18.3171228 17.5727971,18.8006565 18.4159519,19.2871874 C18.4630723,19.3141613 18.5262337,19.3281479 18.5422747,19.3990795 C18.5262337,19.413066 18.5132004,19.4300496 18.4951543,19.44004 C17.6018714,19.9565419 16.7075861,20.4710458 15.8163083,20.9915439 C15.7190598,21.048489 15.6368497,21.021515 15.5466191,20.9975381 C14.5580929,20.7327934 13.5675615,20.4710458 12.5810404,20.1993078 C12.444692,20.1623435 12.3825331,20.1793271 12.3474435,20.3201912 C12.2632282,20.6648589 12.179013,21.0095265 12.073744,21.3482 C12.0286287,21.4920612 12.0817645,21.5210333 12.1990643,21.5500054 C12.5579815,21.6389196 12.9158962,21.7348271 13.2738108,21.8307346 C13.4993873,21.8906768 13.7239612,21.9546152 13.9876351,22.0285439 C13.8873789,22.0914832 13.8282277,22.1314447 13.7660688,22.166411 C13.0983625,22.5510401 12.4326612,22.9386663 11.7609446,23.3153031 C11.6025398,23.4042174 11.5854963,23.4801441 11.6807397,23.6299996 C11.8601983,23.9107289 12.025621,24.2014486 12.186031,24.4941663 C12.2522001,24.6140507 12.3093461,24.621044 12.4226356,24.5541085 C12.8026067,24.3263282 13.1885931,24.1075392 13.5725744,23.8867521 C13.9344993,23.6789524 14.2974268,23.4731509 14.6924362,23.2483676 C14.6773978,23.3173012 14.672385,23.3442752 14.665367,23.3702501 C14.5169879,23.9297106 14.3736215,24.4911692 14.2172218,25.0486317 C14.1831347,25.1695151 14.2031859,25.2094766 14.3265011,25.2394477 C14.665367,25.3213687 15.0022279,25.412281 15.3350785,25.5141828 C15.4894731,25.5611375 15.544614,25.5241731 15.5847165,25.3693224 C15.842375,24.3812752 16.1120642,23.3972241 16.3747354,22.4111749 C16.4048123,22.2982838 16.4629609,22.2243551 16.5662248,22.1654119 C17.0093572,21.9156528 17.4474769,21.6569023 17.8886042,21.403147 C18.3467751,21.1404003 18.8059485,20.8796518 19.2951988,20.6019196 L19.2951988,20.8207086 C19.2951988,21.7787847 19.2921912,22.7358618 19.2982065,23.693938 C19.2992091,23.8447925 19.2520887,23.9486923 19.1458171,24.0535912 C18.4259775,24.7629072 17.7141584,25.4802155 16.9943188,26.1885325 C16.8890498,26.2914333 16.8730088,26.3553716 16.989306,26.4632676 C17.238944,26.6960431 17.4785563,26.939808 17.715161,27.1865701 C17.8124095,27.2874728 17.8755709,27.292468 17.9788348,27.1875691 C18.3588058,26.7969458 18.7477999,26.4153138 19.1357915,26.0316837 C19.1789016,25.9897242 19.2069734,25.9207907 19.290186,25.9227887 C19.2921912,25.9537589 19.2951988,25.9827309 19.2951988,26.010704 C19.2951988,26.8379063 19.2982065,27.6651086 19.2921912,28.492311 C19.2911886,28.6351732 19.3342988,28.6791308 19.4766626,28.6751347 C19.8255542,28.6661434 20.1754484,28.6671424 20.5253425,28.6762788 C20.6606884,28.6791308 20.6997883,28.6361723 20.6977832,28.5033004 C20.6907653,28.0167695 20.6947755,27.5312377 20.693773,27.0447069 C20.693773,26.6710672 20.693773,26.2974275 20.693773,25.8868234 C20.7519216,25.9367753 20.7789908,25.957755 20.8030522,25.9817319 C21.2050796,26.3813466 21.6111173,26.7769651 22.0051242,27.184572 C22.1144035,27.2964641 22.1745572,27.292468 22.2778211,27.1825739 C22.5064053,26.938809 22.7440125,26.7020373 22.9886376,26.475256 C23.10694,26.365362 23.1099476,26.3024227 22.9906428,26.1845363 C22.2637852,25.4722232 21.5479559,24.7489207 20.824106,24.0336104 C20.734878,23.9456952 20.6917679,23.8607771 20.6917679,23.7329004 C20.6967807,22.7608378 20.6957781,21.7877761 20.6957781,20.8157134 L20.6957781,20.6149071 C20.7519216,20.6388839 20.7789908,20.6478753 20.8030522,20.6618618 C21.6853069,21.1683734 22.5675615,21.675884 23.4508188,22.1793984 C23.5580929,22.2403397 23.5931826,22.3332501 23.6212543,22.441146 C23.882923,23.4202019 24.1496045,24.3982588 24.4062604,25.3783138 C24.4443578,25.522175 24.4974936,25.5641346 24.6428651,25.520177 C24.9416286,25.4302637 25.2413947,25.3383523 25.5461736,25.275413 C25.762727,25.2304563 25.8148602,25.1575267 25.7476885,24.9367396 C25.5812632,24.3922646 25.4459173,23.8387983 25.2875125,23.2513648 C25.3787457,23.2993185 25.4358917,23.3252935 25.4900301,23.3572626 C26.1828005,23.7548792 26.877576,24.1514968 27.5673388,24.5551076 C27.6816308,24.622043 27.7377743,24.6150498 27.8029408,24.4951654 C27.9663585,24.1964534 28.1357915,23.8997395 28.3182578,23.612017 C28.4054807,23.4741499 28.3904422,23.4102116 28.2460733,23.3292896 C27.6415284,22.9916152 27.0389885,22.6409534 26.4364487,22.2892925 Z M32.0066837,25.0885931 C31.2507519,25.0885931 30.6381865,25.6990045 30.6381865,26.4522782 C30.6381865,27.2055518 31.2507519,27.8159632 32.0066837,27.8159632 C32.7626156,27.8159632 33.375181,27.2055518 33.375181,26.4522782 C33.375181,25.6990045 32.7626156,25.0885931 32.0066837,25.0885931 Z M34.9923137,6 L5.00768631,6 C3.35345884,6 2,7.34869947 2,8.99710993 L2,31.0028901 C2,32.6513005 3.35345884,34 5.00768631,34 L34.9923137,34 C36.6465412,34 38,32.6513005 38,31.0028901 L38,8.99710993 C38,7.34869947 36.6465412,6 34.9923137,6 Z M35.9948758,31.0038891 C35.9948758,31.545367 35.5357024,32.0029258 34.9923137,32.0029258 L33.2257993,32.0029258 L33.2257993,30.1407214 L6.77420074,30.1407214 L6.77420074,32.0029258 L5.00768631,32.0029258 C4.46429765,32.0029258 4.00512421,31.545367 4.00512421,31.0038891 L4.00512421,8.99710993 C4.00512421,8.45563207 4.46429765,7.99807329 5.00768631,7.99807329 L34.9923137,7.99807329 C35.5357024,7.99807329 35.9948758,8.45563207 35.9948758,8.99710993 L35.9948758,31.0038891 Z" id="Shape" fill="#5C656B"></path>
        </g>
    </g>
</svg>