<?xml version="1.0" encoding="UTF-8"?>
<svg width="40px" height="40px" viewBox="0 0 40 40" version="1.1" xmlns="http://www.w3.org/2000/svg" xmlns:xlink="http://www.w3.org/1999/xlink">
    <!-- Generator: Sketch 60.1 (88133) - https://sketch.com -->
    <title>on_feature_54</title>
    <desc>Created with Sketch.</desc>
    <g id="on_feature_54" stroke="none" stroke-width="1" fill="none" fill-rule="evenodd">
        <g id="Group">
            <polygon id="Fill-1" points="0 40 40 40 40 0 0 0"></polygon>
            <path d="M34.9903021,5 L5.00969792,5 C3.35436406,5 2,6.31386861 2,7.91970803 L2,30.740146 C2,32.3459854 3.35436406,33.659854 5.00969792,33.659854 L6.6168766,33.659854 L5.61966336,37 L7.75755211,37 L8.70861665,33.6588808 L31.2923866,33.6588808 L32.2434511,37 L34.3552558,37 L33.3791105,33.6588808 L34.9903021,33.6588808 C36.6456359,33.6588808 38,32.3450122 38,30.7391727 L38,7.91970803 C38,6.31386861 36.6456359,5 34.9903021,5 Z M35.9935347,30.7391727 C35.9935347,31.2666667 35.5340542,31.7124088 34.9903021,31.7124088 L5.00969792,31.7124088 C4.46594583,31.7124088 4.00646528,31.2666667 4.00646528,30.7391727 L4.00646528,7.91970803 C4.00646528,7.39221411 4.46594583,6.94647202 5.00969792,6.94647202 L34.9903021,6.94647202 C35.5340542,6.94647202 35.9935347,7.39221411 35.9935347,7.91970803 L35.9935347,30.7391727 Z M5.78319028,28.113382 L34.217813,28.113382 L34.217813,8.57177616 L5.78319028,8.57177616 L5.78319028,28.113382 Z M7.65020622,10.3829684 L32.350797,10.3829684 L32.350797,26.3012165 L7.65020622,26.3012165 L7.65020622,10.3829684 Z M29.3581541,29.1381995 C28.8585442,29.1381995 28.4532382,29.5313869 28.4532382,30.0160584 C28.4532382,30.5007299 28.8585442,30.8939173 29.3581541,30.8939173 C29.8577639,30.8939173 30.2630699,30.5007299 30.2630699,30.0160584 C30.2630699,29.5313869 29.8577639,29.1381995 29.3581541,29.1381995 Z M33.0650987,29.1381995 C32.5654888,29.1381995 32.1601828,29.5313869 32.1601828,30.0160584 C32.1601828,30.5007299 32.5654888,30.8939173 33.0650987,30.8939173 C33.5647085,30.8939173 33.9700145,30.5007299 33.9700145,30.0160584 C33.9700145,29.5313869 33.5647085,29.1381995 33.0650987,29.1381995 Z" id="Shape" fill="#5C656B"></path>
        </g>
    </g>
</svg>