<?xml version="1.0" encoding="UTF-8"?>
<svg width="40px" height="40px" viewBox="0 0 40 40" version="1.1" xmlns="http://www.w3.org/2000/svg" xmlns:xlink="http://www.w3.org/1999/xlink">
    <!-- Generator: Sketch 60.1 (88133) - https://sketch.com -->
    <title>on_feature_43</title>
    <desc>Created with Sketch.</desc>
    <g id="on_feature_43" stroke="none" stroke-width="1" fill="none" fill-rule="evenodd">
        <g id="Group">
            <polygon id="Fill-1" points="0 40 40 40 40 0 0 0"></polygon>
            <path d="M4.79057955,37.7821164 L6.6258901,37.7821164 L6.6258901,32.8822447 L12.0993204,32.8822447 L12.0993204,31.3319574 L6.62487443,31.3319574 L6.62487443,28.2625091 L12.4273809,28.2625091 L12.4273809,26.7122218 L4.78956388,26.7122218 L4.78956388,37.7821164 L4.79057955,37.7821164 Z M16.3021511,29.9834886 C16.0045606,30.2003682 15.7526752,30.5106264 15.5332911,30.9132593 L15.5332911,29.765605 L13.7609519,29.765605 L13.7609519,37.7811123 L15.5332911,37.7811123 L15.5332911,33.5328834 C15.5332911,32.8501144 15.7374402,32.3079154 16.1762084,31.8892174 C16.5530209,31.5177107 16.9765541,31.3470185 17.4457923,31.3470185 C17.8226049,31.3470185 18.1984017,31.3932058 18.6066999,31.5177107 L18.6066999,29.7495398 C18.3243444,29.6099738 17.9790176,29.5477213 17.5869701,29.5477213 C17.0862462,29.5497295 16.662713,29.6892955 16.3021511,29.9834886 Z M26.1358406,30.8831372 C25.4299519,29.9834886 24.4102221,29.5497295 23.0776667,29.5497295 C21.8700385,29.5497295 20.91328,29.9523624 20.2226264,30.7746974 C19.5015027,31.5809673 19.1561758,32.5729905 19.1561758,33.7668322 C19.1561758,35.1002399 19.5329884,36.1394545 20.2855977,36.8985329 C20.9914864,37.6274893 21.9482449,38 23.1558731,38 C24.2375586,38 25.1323614,37.6897417 25.8534851,37.0852903 C26.418196,36.5892787 26.7939929,35.9537011 26.982907,35.2086796 L25.1943171,35.2086796 C24.974933,35.6585039 24.7392982,35.9838233 24.4731934,36.1856418 C24.1278666,36.4336476 23.6890984,36.5581525 23.1406381,36.5581525 C22.4977208,36.5581525 21.9959812,36.356334 21.6506544,35.9687622 C21.3053275,35.5811904 21.1011784,35.0068612 21.0392228,34.2628438 L27.1088497,34.2628438 C27.107834,32.8209963 26.7787579,31.689407 26.1358406,30.8831372 Z M21.0696928,32.929436 C21.1793848,32.2938584 21.3987689,31.8129079 21.7278451,31.4875886 C22.0731719,31.146204 22.5281908,30.991577 23.1243874,30.991577 C24.3787364,30.991577 25.084625,31.6271546 25.2410378,32.929436 L21.0696928,32.929436 Z M33.3653594,36.1856418 C33.0200326,36.4336476 32.5812643,36.5581525 32.0317884,36.5581525 C31.3888711,36.5581525 30.8871315,36.356334 30.5418047,35.9687622 C30.1964779,35.5811904 29.9923288,35.0068612 29.9303731,34.2628438 L36,34.2628438 C36,32.8209963 35.6709238,31.689407 35.0269909,30.8831372 C34.3211022,29.9834886 33.3013724,29.5497295 31.968817,29.5497295 C30.7611888,29.5497295 29.8044303,29.9523624 29.1137767,30.7746974 C28.392653,31.5809673 28.0473261,32.5729905 28.0473261,33.7668322 C28.0473261,35.1002399 28.4241387,36.1394545 29.176748,36.8985329 C29.8826367,37.6274893 30.8393952,38 32.0470234,38 C33.1287089,38 34.0235117,37.6897417 34.7446354,37.0852903 C35.3093463,36.5892787 35.6851432,35.9537011 35.8740573,35.2086796 L34.0854674,35.2086796 C33.8681146,35.6585039 33.6324799,35.9838233 33.3653594,36.1856418 Z M30.6210267,31.4875886 C30.9663536,31.146204 31.4213724,30.991577 32.0175691,30.991577 C33.271918,30.991577 33.9778067,31.6271546 34.1342194,32.929436 L29.9628744,32.929436 C30.0715508,32.2938584 30.2919506,31.8129079 30.6210267,31.4875886 Z M19.9524589,26.4812852 C20.85234,26.4812852 21.6669051,26.1178111 22.2549763,25.5324371 C22.8369536,24.9530875 23.1975155,24.1548502 23.1975155,23.274279 C23.1975155,22.3676019 22.8135933,21.5532995 22.2021616,20.9699336 C21.618153,20.4126736 20.827964,20.0672728 19.9524589,20.0672728 C19.0607031,20.0672728 18.2542634,20.4237184 17.6682235,20.9990517 C17.0760895,21.5804094 16.708418,22.3846712 16.708418,23.2752831 C16.708418,24.1407932 17.0588232,24.9219613 17.6215028,25.4993027 C18.2105897,26.101746 19.0353114,26.4812852 19.9524589,26.4812852 Z M28.0899842,17.5791822 C25.9316915,15.4194232 23.0908704,14.1020807 19.9808976,14.1020807 C16.8414704,14.1020807 13.9752577,15.4415128 11.8088396,17.6374184 C11.5498445,17.8994812 11.5508602,18.3221956 11.7956359,18.5973113 L12.652859,19.5602164 C12.9311518,19.8734869 13.4105467,19.8714788 13.7132155,19.5813019 C15.4012544,17.9577174 17.5910327,16.9757349 19.9819132,16.9757349 C22.3463864,16.9757349 24.5138201,17.93864 26.1937336,19.5300943 C26.4964024,19.8172589 26.9727503,19.8172589 27.2500274,19.5049925 L28.1082662,18.5400792 C28.3520263,18.2659675 28.3520263,17.841245 28.0899842,17.5791822 Z M7.90563072,13.256652 C7.65171393,13.521727 7.6527296,13.9414291 7.89648972,14.2145367 L8.75168146,15.1764378 C9.0320056,15.4907123 9.51546317,15.4897083 9.81102231,15.1894907 C12.5035559,12.4503821 16.0715947,10.7796062 19.9808976,10.7796062 C23.8637931,10.7796062 27.4074558,12.4303007 30.0928798,15.1362749 C30.3894546,15.4344843 30.8708808,15.4344843 31.1501893,15.1212138 L32.0063967,14.1593128 C32.2511725,13.884197 32.2501568,13.4644949 31.9952244,13.1994199 C28.8344682,9.91710827 24.6133555,7.9069545 19.9808976,7.9069545 C15.3189853,7.90494784 11.0734966,9.93819379 7.90563072,13.256652 Z M6.09672751,11.0085346 C9.74297261,7.20310147 14.624269,4.87365426 19.9798819,4.87365426 C25.3090875,4.87365426 30.1660078,7.18302003 33.8061589,10.9543147 C34.0986711,11.2575445 34.5851756,11.2575445 34.8654998,10.9432699 L35.7206915,9.98237296 C35.9644516,9.70826128 35.963436,9.2905673 35.7115505,9.0244882 C31.5970829,4.67283985 26.0616969,2 19.9798819,2 C13.8696283,2 8.30885058,4.69492944 4.18828892,9.08272438 C3.9384348,9.34980755 3.9384348,9.76549339 4.18117925,10.0396051 L5.03535533,10.999498 C5.31669513,11.3157807 5.80421537,11.3137725 6.09672751,11.0085346 Z" id="Shape" fill="#5C656B"></path>
        </g>
    </g>
</svg>