<?xml version="1.0" encoding="UTF-8"?>
<svg width="40px" height="40px" viewBox="0 0 40 40" version="1.1" xmlns="http://www.w3.org/2000/svg" xmlns:xlink="http://www.w3.org/1999/xlink">
    <!-- Generator: Sketch 60.1 (88133) - https://sketch.com -->
    <title>on_feature_38</title>
    <desc>Created with Sketch.</desc>
    <g id="on_feature_38" stroke="none" stroke-width="1" fill="none" fill-rule="evenodd">
        <g id="Group">
            <polygon id="Fill-1" points="0 40 40 40 40 0 0 0"></polygon>
            <path d="M27.2272891,12.011129 L27.2272891,6.50826331 L25.0480042,6.50826331 L25.0480042,4.00322742 L25.7235056,4.00322742 L25.7235056,2 L16.7920887,2 L16.7920887,4.00322742 L20.4232694,4.00322742 L20.4232694,6.50826331 L18.1853705,6.50826331 L18.1853705,12.0622113 L13.4145814,15.0420121 L13.4145814,17.780424 L11.1420907,17.780424 L11.1420907,21.5755384 L8,21.5755384 L8,38 L13.4155423,38 L20.2205229,38 L32,38 L32,15.0470202 L27.2272891,12.011129 Z M22.3459983,6.50826331 L22.3459983,4.00322742 L23.127197,4.00322742 L23.127197,6.50826331 L22.3459983,6.50826331 L22.3459983,6.50826331 Z M20.1080995,8.51149074 L25.306482,8.51149074 L25.306482,11.5714206 L20.1080995,11.5714206 L20.1080995,8.51149074 Z M15.1547424,19.7846531 L15.1547424,21.57654 L13.4145814,21.57654 L13.4145814,19.7846531 L15.1547424,19.7846531 Z M15.3363494,35.9977742 L13.4145814,35.9977742 L9.92176803,35.9977742 L9.92176803,23.5797674 L11.1430516,23.5797674 L13.4155423,23.5797674 L15.3373103,23.5797674 L17.0774713,23.5797674 L18.2987549,23.5797674 L18.2987549,35.9977742 L15.3363494,35.9977742 Z M30.0772711,35.9977742 L20.219562,35.9977742 L20.219562,21.57654 L17.0765104,21.57654 L17.0765104,17.7814256 L15.3363494,17.7814256 L15.3363494,16.1768405 L19.5037034,13.5736464 L25.9944749,13.5736464 L30.0763102,16.1718324 L30.0763102,35.9977742 L30.0772711,35.9977742 Z" id="Shape" fill="#5C656B"></path>
        </g>
    </g>
</svg>