<?xml version="1.0" encoding="UTF-8"?>
<svg width="40px" height="40px" viewBox="0 0 40 40" version="1.1" xmlns="http://www.w3.org/2000/svg" xmlns:xlink="http://www.w3.org/1999/xlink">
    <!-- Generator: Sketch 60.1 (88133) - https://sketch.com -->
    <title>on_feature_30</title>
    <desc>Created with Sketch.</desc>
    <g id="on_feature_30" stroke="none" stroke-width="1" fill="none" fill-rule="evenodd">
        <g id="Group">
            <polygon id="Fill-1" points="0 40 40 40 40 0 0 0"></polygon>
            <path d="M11.6414469,17.9483893 C11.8766077,16.9130532 11.2050132,15.88173 10.1442225,15.6509865 L7.1590158,15.5968119 C6.14135504,15.4413109 5.15552827,16.0873927 4.93063654,17.0825995 L3.04729665,25.3783302 C2.81110898,26.4146695 3.48270347,27.4459926 4.54452105,27.6767361 L7.53075464,27.7309107 C7.63241803,27.7469624 7.73408141,27.7539851 7.83369099,27.7539851 C8.73839243,27.7539851 9.55580713,27.1410099 9.7591339,26.2441199 L11.6414469,17.9483893 L11.6414469,17.9483893 Z M7.77002301,25.7324713 L5.07748365,25.6983614 L6.91666672,17.5962546 L9.61023298,17.6303645 L7.77002301,25.7324713 Z M31.932021,23.4390815 L31.8426804,23.0107011 L31.8395997,23.0107011 L30.462523,16.5940252 L30.462523,9.1189388 C30.462523,5.18727009 27.2000525,2 23.1756201,2 L19.5927559,2 C15.5683235,2 12.3058531,5.18727009 12.3058531,9.1189388 L12.3058531,16.5940252 L10.8969423,23.1601828 L10.8702428,23.1541634 L10.3968406,25.1947386 L10.3783563,25.2970683 C10.3619259,25.4365177 10.3567914,25.5669379 10.3526838,25.6963549 L9.76734913,28.4201315 L9.76734913,29.4444321 C9.76734913,32.0016721 11.5069226,33.4874596 13.892418,33.941924 L13.892418,38 L28.8749311,38 L28.8749311,33.941924 C31.2604265,33.4874596 33,32.0026753 33,29.4444321 L33,28.4201315 L31.932021,23.4390815 Z M14.3596588,9.1189388 C14.3596588,6.29985509 16.7071588,4.00646528 19.5927559,4.00646528 L23.1756201,4.00646528 C26.0612172,4.00646528 28.4087172,6.29985509 28.4087172,9.1189388 L28.4087172,14.9276558 L14.3596588,14.9276558 L14.3596588,9.1189388 Z M14.315502,17.0053506 L14.3309055,16.9341211 L28.4374705,16.9341211 L28.452874,17.0053506 L29.9552329,24.0049047 L30.2663845,25.4876825 C30.335187,26.0514993 30.2324967,26.4748634 29.9511253,26.7818526 C29.3853018,27.3978375 28.1756102,27.4911381 27.7463648,27.5182254 L21.3508137,27.5694414 L15.0589797,27.5694414 C14.6194653,27.5724 13.3255676,27.4439862 12.7320178,26.7969011 C12.5245834,26.5711738 12.4167586,26.2822428 12.4034088,25.9240887 L14.315502,17.0053506 Z M26.8221522,35.9925315 L15.9472507,35.9925315 L15.9472507,34.0924089 L26.8221522,34.0924089 L26.8221522,35.9925315 Z M30.9472211,29.4434288 C30.9472211,31.742838 28.6089633,32.0859436 27.215456,32.0859436 L15.5539469,32.0859436 C14.1604397,32.0859436 11.8221818,31.742838 11.8221818,29.4434288 L11.8221818,28.6609074 C13.067815,29.5166648 14.6697835,29.5748523 15.0220112,29.5748523 L21.4144816,29.5748523 L27.7350689,29.5236874 C27.9496916,29.5206777 29.6522966,29.5236874 30.9400328,28.5956972 L30.9461942,28.6267975 L30.9461942,29.4434288 L30.9472211,29.4434288 Z M19.7498721,26.0906253 L23.0195309,26.0906253 C25.2078609,26.0906253 26.9885105,24.35102 26.9885105,22.2131312 C26.9885105,20.0752424 25.2078609,18.3356371 23.0195309,18.3356371 L19.7498721,18.3356371 C17.561542,18.3356371 15.7808924,20.0752424 15.7808924,22.2131312 C15.7808924,24.35102 17.561542,26.0906253 19.7498721,26.0906253 Z M19.7498721,20.3421023 L23.0195309,20.3421023 C24.075187,20.3421023 24.9347047,21.181808 24.9347047,22.2131312 C24.9347047,23.2444544 24.075187,24.0841601 23.0195309,24.0841601 L19.7498721,24.0841601 C18.6942159,24.0841601 17.8346982,23.2444544 17.8346982,22.2131312 C17.8346982,21.181808 18.6942159,20.3421023 19.7498721,20.3421023 Z M7.7998032,20.0622004 C8.13868115,20.0622004 8.41286422,19.7943373 8.41286422,19.4632705 C8.41286422,19.1322038 8.13868115,18.8643407 7.7998032,18.8643407 C7.46092525,18.8643407 7.18674218,19.1322038 7.18674218,19.4632705 C7.18674218,19.7943373 7.46092525,20.0622004 7.7998032,20.0622004 Z M7.33050858,21.1206109 C6.99163063,21.1206109 6.71744756,21.388474 6.71744756,21.7195407 C6.71744756,22.0506075 6.99163063,22.3184706 7.33050858,22.3184706 C7.66938653,22.3184706 7.9435696,22.0506075 7.9435696,21.7195407 C7.9435696,21.388474 7.66938653,21.1206109 7.33050858,21.1206109 Z M6.8057612,23.2966225 C6.46688325,23.2966225 6.19270018,23.5644856 6.19270018,23.8955523 C6.19270018,24.2266191 6.46688325,24.4944822 6.8057612,24.4944822 C7.14463916,24.4944822 7.41882223,24.2266191 7.41882223,23.8955523 C7.41882223,23.5644856 7.14463916,23.2966225 6.8057612,23.2966225 Z" id="Shape" fill="#5C656B"></path>
        </g>
    </g>
</svg>