<?xml version="1.0" encoding="UTF-8"?>
<svg width="40px" height="40px" viewBox="0 0 40 40" version="1.1" xmlns="http://www.w3.org/2000/svg" xmlns:xlink="http://www.w3.org/1999/xlink">
    <!-- Generator: Sketch 60.1 (88133) - https://sketch.com -->
    <title>on_feature_64</title>
    <desc>Created with Sketch.</desc>
    <g id="on_feature_64" stroke="none" stroke-width="1" fill="none" fill-rule="evenodd">
        <g id="Group">
            <polygon id="Fill-1" points="0 40 40 40 40 0 0 0"></polygon>
            <path d="M26.9796245,18.6236117 L26.9796245,16.2326744 L27.0318252,16.154709 C27.7478609,15.1011773 27.830594,13.7327854 27.2475223,12.5842959 C26.6851339,11.4757885 25.6293013,10.802088 24.3646661,10.7820968 L23.9096337,10.7820968 L23.9096337,8.72001333 L23.9647892,8.72001333 C25.077747,8.72001333 25.982887,7.80142159 25.982887,6.67092403 L25.982887,4.04808974 C25.982887,2.91859174 25.077747,2 23.9647892,2 L16.0342259,2 C14.9212681,2 14.0151431,2.91859174 14.0151431,4.04808974 L14.0151431,6.67192359 C14.0151431,7.80242115 14.9202832,8.72101288 16.0342259,8.72101288 L16.0893813,8.72101288 L16.0893813,10.7820968 L15.634349,10.7820968 C15.3093259,10.7820968 14.9852878,10.8260773 14.6701139,10.9130386 C13.6812558,11.188916 12.9031702,11.9215904 12.5357956,12.9211462 C12.1497076,13.9736784 12.2846414,15.1551533 12.8972607,16.0847401 L12.989843,16.2256775 L12.989843,18.6296091 L12,20.9785651 L12,38 L28,38 L28,20.9715682 L26.9796245,18.6236117 Z M16.0174823,6.67192359 L16.0352108,4.03009773 L23.9825177,4.04808974 L23.9825177,6.67192359 C23.9825177,6.68191915 23.9756233,6.69091515 23.9657741,6.69091515 L16.0174823,6.67192359 Z M21.9939674,8.72001333 L21.9939674,10.5831853 L18.0060326,10.5831853 L18.0060326,8.72001333 L21.9939674,8.72001333 Z M25.9976608,35.9689027 L14.0013543,35.9689027 L14.0013543,21.3933807 L14.9911973,19.0444247 L14.9911973,15.607952 L14.559803,14.9552421 C14.3037242,14.5674145 14.2485688,14.0716348 14.4110803,13.6298312 C14.4928286,13.4059307 14.704586,13.0101066 15.1970452,12.8721679 C15.3388735,12.8331853 15.4856263,12.8121946 15.6333641,12.8121946 L24.3902739,12.8121946 C25.0462296,12.8231897 25.3614035,13.3059751 25.4667898,13.5128832 C25.6588489,13.8907152 25.7366574,14.4804531 25.3830717,15.0022212 L24.9763004,15.5999556 L24.9763004,19.050422 L25.9966759,21.3993781 L25.9966759,35.9689027 L25.9976608,35.9689027 Z" id="Shape" fill="#5C656B"></path>
        </g>
    </g>
</svg>