<?xml version="1.0" encoding="UTF-8"?>
<svg width="40px" height="40px" viewBox="0 0 40 40" version="1.1" xmlns="http://www.w3.org/2000/svg" xmlns:xlink="http://www.w3.org/1999/xlink">
    <!-- Generator: Sketch 60.1 (88133) - https://sketch.com -->
    <title>on_feature_36</title>
    <desc>Created with Sketch.</desc>
    <g id="on_feature_36" stroke="none" stroke-width="1" fill="none" fill-rule="evenodd">
        <g id="Group">
            <polygon id="Fill-1" points="0 40 40 40 40 0 0 0"></polygon>
            <path d="M36.5875944,13.3447485 C35.6729321,10.9565519 33.4450396,9.41366201 30.9126002,9.41366201 C30.8114253,9.41366201 30.7092284,9.41571373 30.6060095,9.42084301 C30.6857231,7.7281779 30.1032007,6.13604683 28.9667711,4.93476752 C27.8027484,3.70579006 26.1655539,3 24.4741951,3 C22.7634189,3 21.1763009,3.71399692 20.0000145,5.01068099 C18.8237281,3.71399692 17.2366102,3 15.525834,3 C13.8344752,3 12.1972807,3.7047642 11.0332579,4.93476752 C9.89682834,6.13604683 9.31532794,7.7281779 9.39401956,9.42084301 C9.29080068,9.41571373 9.18860377,9.41366201 9.08742884,9.41366201 C6.55498949,9.41366201 4.32709693,10.9565519 3.41243461,13.3447485 C2.50288214,15.7185831 3.12628327,18.3550373 5.00057454,20.0671937 C3.12628327,21.7803759 2.50288214,24.4158042 3.41243461,26.7896388 C4.11350539,28.6197689 5.58922872,29.9462028 7.37971853,30.4693902 C7.36643293,30.5627433 7.35110339,30.6550705 7.35110339,30.7515011 L7.35110339,34.9482847 C7.35110339,36.0818574 8.26576571,37 9.39504153,37 L30.6039656,37 C31.7332414,37 32.6479037,36.0818574 32.6479037,34.9482847 L32.6479037,30.7515011 C32.6479037,30.6550705 32.6325742,30.5627433 32.6192886,30.4693902 C34.4097784,29.9462028 35.8844797,28.6197689 36.5865725,26.7896388 C37.4961249,24.4158042 36.8727238,21.7793501 34.9984325,20.0671937 C36.8737458,18.3540114 37.4971469,15.7185831 36.5875944,13.3447485 Z M30.6049875,34.9493106 L28.9126068,34.9493106 L11.0148625,34.9493106 L9.3960635,34.9493106 L9.3960635,30.7525269 L9.3960635,30.7525269 L11.4389797,30.7525269 L28.5610494,30.7525269 L30.6039656,30.7525269 L30.6039656,30.7525269 L30.6039656,34.9493106 L30.6049875,34.9493106 Z M33.6095766,21.5721268 C36.3862665,24.0885557 34.5732934,28.6997858 30.9126002,28.6997858 C30.8369745,28.6997858 30.7613488,28.7038892 30.6836792,28.6997858 L28.4516987,28.6997858 L28.4496548,28.6997858 L11.5513963,28.6997858 L11.5493523,28.6997858 L9.31634991,28.6997858 C9.23970223,28.7038892 9.16305455,28.6997858 9.08742884,28.6997858 C5.42571367,28.6997858 3.61274055,24.0885557 6.39045247,21.5721268 L8.0511522,20.0671937 L6.39045247,18.5622605 C3.61376252,16.0458317 5.42673564,11.4653773 9.08742884,11.4653773 C9.16305455,11.4653773 9.23868026,11.467429 9.31634991,11.4715325 L11.5503743,11.5864285 L11.4359138,9.34390369 C11.3051017,6.77720786 13.375611,5.05274115 15.524812,5.05274115 C16.581528,5.05274115 17.6566395,5.46923936 18.4997639,6.40584739 L19.9989926,8.07286607 L21.4982212,6.40584739 C22.3413457,5.4682135 23.4164571,5.05274115 24.4731731,5.05274115 C26.623396,5.05274115 28.6928834,6.77720786 28.5620714,9.34390369 L28.4476108,11.5864285 L30.6816352,11.4715325 C30.7582829,11.467429 30.8349306,11.4653773 30.9105563,11.4653773 C34.5722714,11.4653773 36.3852446,16.0458317 33.6075327,18.5622605 L31.9468329,20.0671937 L33.6095766,21.5721268 Z" id="Shape" fill="#5C656B"></path>
        </g>
    </g>
</svg>