<?xml version="1.0" encoding="UTF-8"?>
<svg width="40px" height="40px" viewBox="0 0 40 40" version="1.1" xmlns="http://www.w3.org/2000/svg" xmlns:xlink="http://www.w3.org/1999/xlink">
    <!-- Generator: Sketch 60.1 (88133) - https://sketch.com -->
    <title>on_feature_37</title>
    <desc>Created with Sketch.</desc>
    <g id="on_feature_37" stroke="none" stroke-width="1" fill="none" fill-rule="evenodd">
        <g id="Group">
            <polygon id="Fill-1" points="0 40 40 40 40 0 0 0"></polygon>
            <path d="M26.4183397,2.96284239 C25.9234875,2.35159407 25.1892556,2 24.403728,2 L23.5840034,2 C23.3214903,2 23.070041,2.04748541 22.8276439,2.12224966 L16.3734436,2.12224966 L13.500887,15.6192187 L18.7310321,15.6192187 L18.4846118,16.8477773 L17.2092611,18.1672654 L13,38 L19.1263104,38 L23.0951859,19.3028738 L24.418815,17.7823305 L26.9443716,5.13908846 C27.1052992,4.36719802 26.9131919,3.5740907 26.4183397,2.96284239 Z M15.9872175,13.5985631 L17.9988118,4.14290525 L21.027267,4.14290525 L19.1343568,13.5985631 L15.9872175,13.5985631 Z M24.974015,4.73495734 L22.5520555,16.8568702 L21.2364728,18.3673103 L17.4989306,35.9793444 L15.4863305,35.9793444 L19.0559046,19.1583969 L20.3403076,17.8288056 L23.010699,4.48944769 C23.0670236,4.21766951 23.3074091,4.02065559 23.5829976,4.02065559 L24.4027222,4.02065559 C24.6451193,4.02065559 24.7909599,4.15704984 24.8563367,4.23787607 C24.9227194,4.31769196 25.0253107,4.48944769 24.974015,4.73495734 Z" id="Shape" fill="#5C656B"></path>
        </g>
    </g>
</svg>