<?xml version="1.0" encoding="UTF-8"?>
<svg width="40px" height="40px" viewBox="0 0 40 40" version="1.1" xmlns="http://www.w3.org/2000/svg" xmlns:xlink="http://www.w3.org/1999/xlink">
    <!-- Generator: Sketch 60.1 (88133) - https://sketch.com -->
    <title>on_feature_17</title>
    <desc>Created with Sketch.</desc>
    <g id="on_feature_17" stroke="none" stroke-width="1" fill="none" fill-rule="evenodd">
        <g id="Group">
            <polygon id="Fill-1" points="0 40 40 40 40 0 0 0"></polygon>
            <path d="M37.9607996,25.1088678 L37.9607996,16.1018405 C37.9607996,8.32559955 31.6264239,2 23.841635,2 C16.0568461,2 9.72146527,8.32559955 9.72146527,16.1018405 L9.72146527,23.4885666 L4.01027474,23.4885666 C2.89959795,23.4885666 2,24.3870608 2,25.4963748 L2,35.9921919 C2,37.1015059 2.89959795,38 4.01027474,38 L14.7471521,38 L32.9351128,38 L35.9897253,38 C37.1004021,38 38,37.1015059 38,35.9921919 L38,25.4963748 C38,25.3628555 37.9849229,25.2343558 37.9607996,25.1088678 Z M21.5308242,25.4963748 L21.5308242,35.9921919 L18.5596382,35.9921919 L18.5596382,25.4963748 L21.5308242,25.4963748 Z M23.541099,25.4963748 L26.5112799,25.4963748 L26.5112799,35.9921919 L23.541099,35.9921919 L23.541099,25.4963748 L23.541099,25.4963748 Z M28.5215546,25.4963748 L31.4927407,25.4963748 L31.4927407,35.9921919 L28.5215546,35.9921919 L28.5215546,25.4963748 Z M33.5020103,25.4963748 L35.9495198,25.4963748 L35.9887201,25.4963748 L35.9887201,35.9921919 L33.5020103,35.9921919 L33.5020103,25.4963748 Z M11.73174,16.1018405 C11.73174,9.44997211 17.1805897,4.00780814 23.8406299,4.00780814 C30.5006701,4.00780814 35.9495198,9.44997211 35.9495198,16.1018405 L35.9495198,23.4885666 L11.73174,23.4885666 L11.73174,16.1018405 Z M4.01027474,25.4963748 L6.58845209,25.4963748 L6.58845209,35.9921919 L4.01027474,35.9921919 L4.01027474,25.4963748 Z M8.59772169,35.9921919 L8.59772169,25.4963748 L9.72146527,25.4963748 L11.5689078,25.4963748 L11.5689078,35.9921919 L10.7527362,35.9921919 L8.59772169,35.9921919 Z M13.5791825,35.9921919 L13.5791825,25.4963748 L16.5503686,25.4963748 L16.5503686,35.9921919 L14.7481572,35.9921919 L13.5791825,35.9921919 Z" id="Shape" fill="#5C656B"></path>
        </g>
    </g>
</svg>