<?xml version="1.0" encoding="UTF-8"?>
<svg width="40px" height="40px" viewBox="0 0 40 40" version="1.1" xmlns="http://www.w3.org/2000/svg" xmlns:xlink="http://www.w3.org/1999/xlink">
    <!-- Generator: Sketch 60.1 (88133) - https://sketch.com -->
    <title>on_feature_34</title>
    <desc>Created with Sketch.</desc>
    <g id="on_feature_34" stroke="none" stroke-width="1" fill="none" fill-rule="evenodd">
        <g id="Group">
            <polygon id="Fill-1" points="0 40 40 40 40 0 0 0"></polygon>
            <path d="M34.4340836,14.8864035 L35.9636482,7.16617978 C36.0694422,6.64936149 35.9418961,6.11852099 35.6126492,5.70887238 C35.2834023,5.30022536 34.7959586,5.06485268 34.2748981,5.06485268 L33.7805334,5.06485268 C33.6223366,5.06485268 33.4730385,5.10391453 33.3267065,5.14598114 L33.3267065,5.13796845 L29.3085097,5.13796845 L27.5100107,13.6604624 L30.6620804,13.6604624 L30.5622188,14.1652617 L29.7979308,14.962524 L28.8873109,19.0910608 L26.7170496,19.0910608 L26.7170496,15.1998998 L23.7854666,12.1660963 L23.7854666,6.5071363 L21.543028,6.5071363 L21.543028,4.00317169 L22.2381049,4.00317169 L22.2381049,2 L13.0488526,2 L13.0488526,4.00317169 L16.7842728,4.00317169 L16.7842728,6.5071363 L14.4815217,6.5071363 L14.4815217,12.2492279 L11.5489499,15.1908856 L11.5489499,17.779985 L7.23413429,17.779985 L7.23413429,21.5759953 L4,21.5759953 L4,38 L11.5489499,38 L16.5736734,38 L16.8169009,38 L20.9774747,38 L26.7170496,38 L33.6846266,38 L34.8592373,19.0900593 L32.9084739,19.0900593 L33.6322239,15.8128704 L34.4340836,14.8864035 Z M29.4054052,12.1090059 L30.5493653,6.68942492 L32.0472905,6.68942492 L30.9715528,12.1090059 L29.4054052,12.1090059 Z M18.7617318,6.5071363 L18.7617318,4.00317169 L19.565569,4.00317169 L19.565569,6.5071363 L18.7617318,6.5071363 Z M16.4589808,8.51030799 L21.8080075,8.51030799 L21.8080075,11.5711543 L16.4589808,11.5711543 L16.4589808,8.51030799 Z M13.526409,16.0262082 L15.9705484,13.574326 L22.3785045,13.574326 L24.7386018,16.0171939 L24.7386018,19.0900593 L20.1924235,19.0900593 L20.3595188,23.1314581 L16.5716959,23.1314581 L16.5716959,21.5759953 L13.5244315,21.5759953 L13.5244315,16.0262082 L13.526409,16.0262082 Z M15.8242164,29.680828 C15.3525924,29.680828 14.9699541,29.2932143 14.9699541,28.8154578 C14.9699541,28.3377014 15.3525924,27.9500876 15.8242164,27.9500876 C15.8301488,27.9500876 15.8341037,27.9530924 15.8400361,27.9530924 L15.8400361,27.9530924 L16.5746621,27.9530924 L20.5622083,27.9530924 L22.5416448,27.9530924 L24.862193,27.9530924 C25.2300004,27.9400718 25.5256305,27.6375929 25.5256305,27.2619982 C25.5256305,26.8783908 25.2201131,26.5678992 24.8414297,26.565896 L24.8345086,26.565896 C24.8285762,26.5668976 24.8236326,26.5689008 24.8177002,26.5689008 L24.8177002,26.565896 L22.4833098,26.565896 L20.5038733,26.565896 L16.5746621,26.565896 L15.8400361,26.565896 L15.8400361,26.5598865 C15.8341037,26.5598865 15.8301488,26.5628912 15.8242164,26.5628912 C15.3525924,26.5628912 14.9699541,26.1752775 14.9699541,25.6975211 C14.9699541,25.2197646 15.3525924,24.8321509 15.8242164,24.8321509 C15.8301488,24.8321509 15.8341037,24.8351557 15.8400361,24.8351557 L15.8400361,24.8351557 L16.5746621,24.8351557 L20.4326847,24.8351557 L22.4121213,24.8351557 L25.2260455,24.8351557 C25.2458201,24.8351557 25.264606,24.8301477 25.2843805,24.8301477 C26.6082894,24.8301477 27.6810609,25.91787 27.6810609,27.2579918 C27.6810609,28.5991153 26.6073007,29.6868375 25.2843805,29.6868375 C25.2675721,29.6868375 25.2527412,29.6828311 25.2359328,29.6828311 L25.2359328,29.6838327 L22.6128334,29.6838327 L20.6333968,29.6838327 L16.5746621,29.6838327 L15.8400361,29.6838327 L15.8400361,29.6778232 C15.8341037,29.6778232 15.8301488,29.680828 15.8242164,29.680828 Z M9.21159334,19.7831567 L11.3630688,19.7831567 L11.3630688,21.5759953 L9.21159334,21.5759953 L9.21159334,19.7831567 Z M11.5489499,35.9978299 L5.97745906,35.9978299 L5.97745906,23.579167 L7.23413429,23.579167 L11.5499387,23.579167 L13.3415166,23.579167 L13.5273977,23.579167 L14.3945135,23.579167 C13.7281098,24.0429013 13.2901026,24.8181287 13.2901026,25.6965195 C13.2901026,26.2824472 13.4848824,26.8233036 13.8121518,27.2559886 C13.4848824,27.6886737 13.2901026,28.2295301 13.2901026,28.8154578 C13.2901026,29.5906853 13.6381354,30.2787747 14.1760043,30.7495201 C13.3049336,31.5077206 12.740369,32.6174777 12.740369,33.8704616 C12.740369,34.6516985 12.9677768,35.3748435 13.3415166,35.9988315 L11.5489499,35.9988315 L11.5489499,35.9978299 Z M14.5962143,34.7768968 C14.4844879,34.4964527 14.4192318,34.190969 14.4192318,33.86946 C14.4192318,33.5479509 14.4844879,33.2424672 14.5962143,32.9620232 C14.9224951,32.1447292 15.6749183,31.5588014 16.5736734,31.465654 C16.6547492,31.4576413 16.7328589,31.4406143 16.8169009,31.4406143 C16.8337093,31.4406143 16.8485402,31.4446206 16.8653486,31.4446206 L16.8653486,31.4436191 L20.7065628,31.4436191 L22.6859993,31.4436191 L26.2612453,31.4436191 L26.2612453,31.4496286 C26.2671777,31.4496286 26.2711326,31.4466238 26.277065,31.4466238 C26.748689,31.4466238 27.1313273,31.8342375 27.1313273,32.311994 C27.1313273,32.7897504 26.748689,33.1773642 26.277065,33.1773642 C26.2711326,33.1773642 26.2671777,33.1743594 26.2612453,33.1743594 L26.2612453,33.1743594 L22.7571879,33.1743594 L20.7777514,33.1743594 L17.2390884,33.1743594 C16.871281,33.18738 16.5756509,33.4898589 16.5756509,33.8654536 C16.5756509,34.249061 16.8811683,34.5595526 17.2598517,34.5615558 L17.2667728,34.5615558 C17.2727052,34.5605542 17.2776488,34.558551 17.2835812,34.558551 L17.2835812,34.5615558 L20.8350977,34.5615558 L22.8145342,34.5615558 L26.2612453,34.5615558 L26.2612453,34.5675653 C26.2671777,34.5675653 26.2711326,34.5645606 26.277065,34.5645606 C26.748689,34.5645606 27.1313273,34.9521743 27.1313273,35.4299307 C27.1313273,35.649278 27.0443191,35.8445873 26.9108406,35.9968283 C26.7546213,36.1771138 26.5321572,36.2953009 26.277065,36.2953009 C26.2711326,36.2953009 26.2671777,36.2922961 26.2612453,36.2922961 L26.2612453,36.2922961 L16.8762246,36.2922961 C16.85645,36.2922961 16.8376642,36.2973053 16.8178896,36.2973053 C15.8103742,36.2983057 14.952157,35.6683082 14.5962143,34.7768968 Z M31.8287813,35.9978299 L28.7449339,35.9978299 C28.7864605,35.8145397 28.8121675,35.6262415 28.8121675,35.4309323 C28.8121675,34.8450046 28.6173878,34.3041482 28.2901183,33.8714631 C28.6173878,33.4387781 28.8121675,32.8979217 28.8121675,32.311994 C28.8121675,31.5367665 28.4641347,30.8486771 27.9262658,30.3779317 C28.7973366,29.6197312 29.3619011,28.5099741 29.3619011,27.2569902 C29.3619011,24.979384 27.5327515,23.1254486 25.2833918,23.1254486 C25.2448314,23.1254486 25.1973723,23.1274518 25.1509021,23.1304566 L22.3409327,23.1304566 L22.2568907,21.0922294 L24.7405793,21.0922294 L26.7180384,21.0922294 L28.4463376,21.0922294 L30.0164401,21.0922294 L30.8983868,21.0922294 L32.4675006,21.0922294 L32.7542321,21.0922294 L31.8287813,35.9978299 Z M32.2232844,15.0897254 L31.3403489,19.0910608 L30.4584022,19.0910608 L31.1999493,15.7297388 L31.9770907,14.9184542 L33.5946522,6.77155496 C33.6134381,6.68041065 33.690559,6.61630916 33.7825108,6.61630916 L34.2768756,6.61630916 C34.352019,6.61630916 34.3994781,6.655371 34.425185,6.68842334 C34.4518807,6.72047408 34.4795651,6.77556131 34.4637455,6.85568817 L33.0132793,14.1762791 L32.2232844,15.0897254 Z" id="Shape" fill="#5C656B"></path>
        </g>
    </g>
</svg>