<?xml version="1.0" encoding="UTF-8"?>
<svg width="40px" height="40px" viewBox="0 0 40 40" version="1.1" xmlns="http://www.w3.org/2000/svg" xmlns:xlink="http://www.w3.org/1999/xlink">
    <!-- Generator: Sketch 60.1 (88133) - https://sketch.com -->
    <title>on_feature_5</title>
    <desc>Created with Sketch.</desc>
    <g id="on_feature_5" stroke="none" stroke-width="1" fill="none" fill-rule="evenodd">
        <g id="Group">
            <polygon id="Fill-1" points="0 40 40 40 40 0 0 0"></polygon>
            <path d="M29.7708554,2 L10.2291446,2 C5.07840624,2 2,5.67514841 2,9.2278922 L2,11.2917143 C2,13.5050305 3.79949847,15.3049804 6.01225968,15.3049804 L7.2269713,15.3049804 L4.62301477,26.6294139 L4.62301477,32.9784008 C4.62301477,34.6338731 5.97715241,35.9883504 7.63220953,35.9883504 L9.60925049,35.9883504 L9.60925049,38 L11.6153803,38 L11.6153803,35.9883504 L28.5731959,35.9883504 L28.5731959,38 L30.5793257,38 L30.5793257,35.9883504 L32.5563667,35.9883504 C34.2114238,35.9883504 35.5655614,34.6338731 35.5655614,32.9784008 L35.5655614,26.6294139 L32.9606018,15.303977 L34.4892728,15.303977 C36.2366119,15.303977 38,14.0628745 38,11.290711 L38,9.22688888 C38,5.67414509 34.9215938,2 29.7708554,2 Z M22.6892171,33.9827207 L17.3107829,33.9827207 L17.3107829,32.4205568 C17.3107829,31.9570246 17.6879354,31.5797776 18.1513514,31.5797776 L21.8486486,31.5797776 C22.3120646,31.5797776 22.6892171,31.9570246 22.6892171,32.4205568 L22.6892171,33.9827207 Z M33.5594316,26.8571667 L33.5594316,32.9784008 C33.5594316,33.5221984 33.1000279,33.9817173 32.5563667,33.9817173 L23.692282,33.9817173 L23.692282,32.4195535 C23.692282,31.4011873 22.8667595,30.5754578 21.8486486,30.5754578 L18.1513514,30.5754578 C17.1332405,30.5754578 16.307718,31.4011873 16.307718,32.4195535 L16.307718,33.9817173 L7.63220953,33.9817173 C7.08854834,33.9817173 6.62914461,33.5221984 6.62914461,32.9784008 L6.62914461,26.8571667 L10.0736695,11.8806611 C10.5561438,10.0646582 11.4207857,9.33023048 13.0597938,9.33023048 L13.1079409,9.33023048 L13.1149624,9.33023048 L13.1500697,9.33023048 L20.0942881,9.33023048 L27.0405127,9.33023048 C28.6002786,9.34026365 29.4368348,10.1469301 29.8220117,10.9154706 C29.9273335,11.167303 30.0186124,11.4452217 30.0878239,11.7672863 L30.0908331,11.788356 L30.1098913,11.8585881 L33.5594316,26.8571667 Z M35.9938702,11.290711 C35.9938702,12.3993757 35.5976595,13.297344 34.4892728,13.297344 L32.5864586,13.297344 L32.0548342,11.366963 C32.005684,11.046905 31.9003622,10.7188205 31.7699638,10.3927427 C31.1661187,8.73125052 29.8661466,7.32460076 27.1237671,7.32460076 C27.0956812,7.32460076 27.0675954,7.32460076 27.0395096,7.32460076 L13.1490666,7.32460076 C13.0577877,7.32159081 12.9685149,7.31958418 12.8812483,7.31958418 C9.51797158,7.31958418 8.57308442,9.59811599 8.13374199,11.366963 L7.60211758,13.297344 L6.01225968,13.297344 C4.90387295,13.297344 4.00612984,12.3993757 4.00612984,11.290711 L4.00612984,9.22688888 C4.00612984,6.06644185 7.06949011,4.00562972 10.2291446,4.00562972 L29.7708554,4.00562972 C32.9305099,4.00562972 35.9938702,6.06644185 35.9938702,9.22688888 L35.9938702,11.290711 Z M20,11.8214654 C15.6286431,11.8214654 12.0727779,15.3782225 12.0727779,19.7516792 C12.0727779,24.1241325 15.6286431,27.6808896 20,27.6808896 C24.3713569,27.6808896 27.9282251,24.1241325 27.9282251,19.7516792 C27.9282251,15.3782225 24.3713569,11.8214654 20,11.8214654 Z M20,25.6742566 C16.7350237,25.6742566 14.0789078,23.0174744 14.0789078,19.7516792 C14.0789078,16.4858839 16.7350237,13.8280984 20,13.8280984 C23.2649763,13.8280984 25.9220953,16.4848806 25.9220953,19.7516792 C25.9220953,23.0174744 23.2649763,25.6742566 20,25.6742566 Z" id="Shape" fill="#5C656B"></path>
        </g>
    </g>
</svg>