<?xml version="1.0" encoding="UTF-8"?>
<svg width="40px" height="40px" viewBox="0 0 40 40" version="1.1" xmlns="http://www.w3.org/2000/svg" xmlns:xlink="http://www.w3.org/1999/xlink">
    <!-- Generator: Sketch 60.1 (88133) - https://sketch.com -->
    <title>on_feature_101</title>
    <desc>Created with Sketch.</desc>
    <g id="on_feature_101" stroke="none" stroke-width="1" fill="none" fill-rule="evenodd">
        <g id="Group">
            <rect id="Rectangle" x="0" y="0" width="40" height="40"></rect>
            <path d="M35.4038606,10.6020675 L35.4038606,6.80893199 C35.4038606,4.70503514 33.6720983,3 31.5352219,3 L8.5058912,3 C6.36901479,3 4.63725244,4.70503514 4.63725244,6.80893199 L4.63725244,10.6020675 L2,26.9287415 L2,30.2795749 C2,32.3834717 3.89220356,34.0885069 6.02807721,34.0885069 L6.18751567,34.0885069 L6.18751567,37 L8.19303083,37 L8.19303083,34.0885069 L31.8470795,34.0885069 L31.8470795,37 L33.8525946,37 L33.8525946,34.0885069 L34.0120331,34.0885069 C36.1489095,34.0885069 38,32.3834717 38,30.2795749 L38,26.9287415 L35.4038606,10.6020675 Z M6.62672349,10.852837 L7.9172725,10.852837 C7.97844071,12.9044079 9.6831286,14.5581044 11.7819002,14.5581044 L14.9746804,14.5581044 C17.073452,14.5581044 18.7781399,12.9044079 18.8393081,10.852837 L21.1677112,10.852837 C21.2288794,12.9044079 22.9335673,14.5581044 25.0323389,14.5581044 L28.2251191,14.5581044 C30.3238907,14.5581044 32.0285786,12.9044079 32.0897468,10.852837 L33.4153923,10.852837 L33.4244171,10.9071375 L34.1905239,15.7221093 L5.84056154,15.7221093 L6.61769867,10.9120739 L6.62672349,10.852837 Z M9.91075458,10.7422615 C9.91075458,9.72733608 10.7500627,8.90098147 11.7808975,8.90098147 L14.9736776,8.90098147 C16.0045124,8.90098147 16.8438205,9.72733608 16.8438205,10.7422615 C16.8438205,10.7797782 16.8347957,10.8153203 16.8327902,10.852837 C16.7736275,11.8154364 15.9664076,12.5835414 14.9736776,12.5835414 L11.7808975,12.5835414 C10.7881675,12.5835414 9.98195036,11.8154364 9.92178491,10.852837 C9.91977939,10.8163076 9.91075458,10.7807654 9.91075458,10.7422615 Z M23.1611933,10.7422615 C23.1611933,9.72733608 24.0005014,8.90098147 25.0313362,8.90098147 L28.2241163,8.90098147 C29.2549511,8.90098147 30.0942592,9.72733608 30.0942592,10.7422615 C30.0942592,10.7797782 30.0852344,10.8153203 30.0832289,10.852837 C30.0240662,11.8154364 29.2168463,12.5835414 28.2241163,12.5835414 L25.0313362,12.5835414 C24.0386062,12.5835414 23.2323891,11.8154364 23.1722236,10.852837 C23.1702181,10.8163076 23.1611933,10.7807654 23.1611933,10.7422615 Z M8.5058912,4.97456298 L31.5342191,4.97456298 C32.5620456,4.97456298 33.3973427,5.79795575 33.3973427,6.80893199 L33.3973427,8.87926128 L31.584357,8.87926128 C30.9185259,7.72019281 29.66909,6.92641849 28.2231136,6.92641849 L25.0303334,6.92641849 C23.584357,6.92641849 22.334921,7.72019281 21.66909,8.87926128 L18.3339183,8.87926128 C17.6680872,7.72019281 16.4186513,6.92641849 14.9726749,6.92641849 L11.7798947,6.92641849 C10.3339183,6.92641849 9.08448233,7.72019281 8.41865129,8.87926128 L6.64276761,8.87926128 L6.64276761,6.80893199 C6.64276761,5.79696847 7.47806468,4.97456298 8.5058912,4.97456298 Z M5.52168463,17.6966723 L34.5023815,17.6966723 L35.9313111,26.6819211 L4.06969165,26.6819211 L5.52168463,17.6966723 Z M34.0130358,32.1139439 L6.02807721,32.1139439 C4.95011281,32.1139439 4.00551517,31.2569836 4.00551517,30.2795749 L4.00551517,28.6564841 L35.9954876,28.6564841 L35.9954876,30.2795749 C35.9954876,31.2569836 35.0689396,32.1139439 34.0130358,32.1139439 Z" id="Shape" fill="#5C656B"></path>
        </g>
    </g>
</svg>