<svg xmlns="http://www.w3.org/2000/svg" viewBox="0 0 577.92 592.44"><defs><style>.cls-1{fill:#fff;}.cls-2{font-size:76.78px;fill:red;font-family:Algerian, Algerian;}</style></defs><title>logo</title><g id="圖層_2" data-name="圖層 2"><path class="cls-1" d="M340.83,283.31a16.09,16.09,0,0,1-4.35.73l-1.45.73h1.81l1.81-.73c.73,0,1.09.49,1.09,1.45l-.36,2.18a12,12,0,0,1-5.8,2.17,58.76,58.76,0,0,1-6.52.36,39.31,39.31,0,0,1-10.87-1.45,65.14,65.14,0,0,1-7.25-.36q-3.26-.36-5.44-.72a77.06,77.06,0,0,0-12.69-1.09l-1.09-.36q-5.08.36-17.4-1.09a73.27,73.27,0,0,1-7.43-.54,78.76,78.76,0,0,0-8.52-.54,85,85,0,0,1-21.56-2.36,29.13,29.13,0,0,1-15-9.6,30,30,0,0,0-6.16-5.07,17.92,17.92,0,0,1-6.52-6.16,25.75,25.75,0,0,0-4.89-6.16q-3.08-2.9-5.26-5.07-2.54-3.26-6.89-9.79-10.52-14.86-15.58-21-2.9-3.26-7.61-9.6T161.8,201a85.56,85.56,0,0,1-4.89-7.43q-3.45-5.62-6.7-7.79a33.54,33.54,0,0,1-2.9-4,12.19,12.19,0,0,1-2.17-6.88,15.1,15.1,0,0,0-1.81-.73,2.31,2.31,0,0,1-1.45-1.09q-4.71,2.17-6.16,4a12.35,12.35,0,0,0-2.17,5.07A15.78,15.78,0,0,1,131,188q-.73,4-3.08,12.32t-2.72,8.7l-.36,2.18-.36.72a15.5,15.5,0,0,1-1.09,5.44q-1.82,1.45-3.08,7.43t-2.36,12.14q-2.18,13.41-3.63,14.13L114,252.5a4.6,4.6,0,0,1-.36,4l-2.54,1.45v.73h1.45a8.34,8.34,0,0,1-1.45,4.71,12.41,12.41,0,0,0-1.81,3.63,25.34,25.34,0,0,0-2.36,1.81,23,23,0,0,1-3.08,2.17q-9.43,8.7-17.76,8.7-3.26,1.82-18.3,5.62t-18.66,3.8H48L47.27,288l1.09-1.81-2.9,2.9A1.45,1.45,0,0,1,45.1,288a3.28,3.28,0,0,0-.36-1.45l-2.54,2.17-.36.72H40.75l1.09-1.81v-.36l-2.17.36a12.23,12.23,0,0,1-3.44,2.17A42.53,42.53,0,0,0,32.05,292l-.72-.73v-.73l.36-1.09H30.24v-.36a2.51,2.51,0,0,1-1.27,2,15.49,15.49,0,0,0-1.63,1.27L26.25,292a2.6,2.6,0,0,1,1.45-2.54H26.25A9.8,9.8,0,0,1,21,288a4.46,4.46,0,0,1-2.36-4,19.59,19.59,0,0,1,1.09-5.62Q20.82,275,21.9,275l2.17-.73a6.36,6.36,0,0,0,3.08-.91,6.4,6.4,0,0,1,3.08-.91v3.26l3.26,4,1.81.36c2.17,0,3.38-.24,3.62-.73q3.26,0,8.33-2.9c.48-.24,1.51-.72,3.08-1.45a10.79,10.79,0,0,1,4.53-1.09,28.27,28.27,0,0,1,9.06-3.26,68.1,68.1,0,0,0,8.7-3.44,18.84,18.84,0,0,0,5.8-4.53q1.09-2.9,5.44-9.06a36.07,36.07,0,0,0,4.53-6.16A12.37,12.37,0,0,0,90,241.27l.36-.73.36-2.9v-.73a27.32,27.32,0,0,0,1.09-5.44q.36-3.26.72-5.07a32.67,32.67,0,0,1,1.63-5.07,15.32,15.32,0,0,0,1.27-5.07,30.67,30.67,0,0,1,.73-6.34q.72-3.44,1.09-4.89a39.24,39.24,0,0,0,1.81-10.87V192.7l-6.89,4.35a46.49,46.49,0,0,1-6.52,4.35q-5.44,3.26-6.89,4.35v2.17a15.37,15.37,0,0,1-5.44.73,9.23,9.23,0,0,1-4.71-.91,6.76,6.76,0,0,1-2.36-2.54c-.61-1.09-1.27-1.63-2-1.63a5.1,5.1,0,0,1-2.9-.73A4.1,4.1,0,0,1,60,200l-4-2.17A1.6,1.6,0,0,0,54.16,196l-.72-1.45a6.34,6.34,0,0,1-2.9-1.81l-2.17-2.17c-.49,0-1.09-.6-1.81-1.81a6.18,6.18,0,0,1-1.09-2.9A7.31,7.31,0,0,1,48,180.74q.72-1.08,8.52-17.94T69,145.59q0,.37-5.8,10.15T56,167.7l.73.73q2.17-1.09,6.34-7.61a98.66,98.66,0,0,1,6-8.7A209.87,209.87,0,0,1,84.6,132.18q8.33-9.42,16.13-17.21t10-10.33a5.94,5.94,0,0,0,.73-3.26,20.1,20.1,0,0,1,.36-4,6.74,6.74,0,0,1-.73-3.63L110.7,93a19.42,19.42,0,0,0-1.63-4.89A24.8,24.8,0,0,1,107.43,84a7.78,7.78,0,0,1,1.45-4.35l-.36-1.09a14.76,14.76,0,0,1-2.54.73,6.71,6.71,0,0,1-2.36-.73,7.63,7.63,0,0,0-3.08-.73H98.74a2.34,2.34,0,0,1-2-.73,6.53,6.53,0,0,1-.91-2.54,2.52,2.52,0,0,0-.91-1.63,6.47,6.47,0,0,1-1.27-1.63,8.15,8.15,0,0,1-2.9-2.9V68a9,9,0,0,0-1.45-4,8.47,8.47,0,0,0-2.17-2.9L86.05,59.7a32.47,32.47,0,0,0,.36-6.16q0-6.16-.72-8l-2.18-1.09A2.41,2.41,0,0,0,83,43a2.2,2.2,0,0,1-.54-1.09l.36-5.08a9,9,0,0,0-1.09-4v-.73a27.15,27.15,0,0,1-1.45-3.63,29,29,0,0,0-1.45-3.62V18.38q8-10.14,9.79-10.15.72.36,9.42,7.25a91.26,91.26,0,0,0,12.68,9.79,13.45,13.45,0,0,1,3.44.54,13.4,13.4,0,0,0,3.44.54,133,133,0,0,0,20.3-1.81,196.08,196.08,0,0,1,19.93-1.45h1.09l.36.36a2,2,0,0,0,1.63,1.09h1.27l.72.36,1.45-.36,1.81.36a54.1,54.1,0,0,1,12.32-3.63,70.34,70.34,0,0,1,12.68-1.45,18.41,18.41,0,0,1,4.53.91,32.61,32.61,0,0,1,5.26,2v1.63a2.66,2.66,0,0,0,.73,2c1.69.49,2.54,1.21,2.54,2.17a9.71,9.71,0,0,1-.54,3.08,9.8,9.8,0,0,0-.54,3.08c0,2.17.36,3.51,1.09,4a7.32,7.32,0,0,0-1.45,4.71V47q-2.9,1.45-3.63,2.9-4,0-8.33,3.26t-6.16,3.26q-9.06,4-22.47,13.77L152,76.73l-1.09,1.09q-4.35,1.45-9.78,7.61a26.06,26.06,0,0,1,5.25,7.07q2.72,4.89,2.72,8.16v3.62a19.23,19.23,0,0,0,.36,4.35,45.48,45.48,0,0,0,1.27,5.8q.9,3.26,1.27,5.44a9.36,9.36,0,0,0,6.16-1.81,44.27,44.27,0,0,0,5.44-5.8,21.3,21.3,0,0,1,5.07-5.8l.73.72,1.81-1.81-.36-.36-1.45.36c0,.24-.25.36-.73.36l-.36-2.9-.36-.73a1.38,1.38,0,0,0,.18-1.27c-.12-.6-.42-.91-.91-.91l-3.63-3.62q3.62.73,5.07,2.54,7.25,2.17,10.87,2.17a5.58,5.58,0,0,1,2.17-.73q1.81,0,3.8,2.18a19.41,19.41,0,0,1,3.08,4.35l1.09.73a29.09,29.09,0,0,1,3.63,1.45,18.36,18.36,0,0,0,2.54,1.09l2.17,1.45,1.45,3.62,2.17,2.54q-.36.73-2,3.8a11.74,11.74,0,0,0-1.63,5.26v3.62c0,1-.24,1.57-.72,1.81s-1.15.54-2,.91-1.63.67-2.36.91a53.21,53.21,0,0,0-4.53,5.26c-1.57,2.06-2.72,3.57-3.44,4.53a51.45,51.45,0,0,0-17.4,9.78l1.81,2.18q0,1.45,13.23,18.3t15.4,18.3a51.62,51.62,0,0,0,9.42,10.51q19.93,19.94,22.47,21a133.13,133.13,0,0,1,14.5,9.06q6.53,4.71,12.69,8.34,34.43,19.93,59.07,27.54v.73a23.39,23.39,0,0,1,5.62.91,22.33,22.33,0,0,0,5.25.91,6.36,6.36,0,0,1,.91,1.45,1.74,1.74,0,0,0,1.63,1.09,8.16,8.16,0,0,0,1.63-.36c.84-.24,1.27,0,1.27.72,0,.25-.06.85-.18,1.81s.18,1.45.91,1.45a3.16,3.16,0,0,0,1.27-.55,3.81,3.81,0,0,1,2-.54c.24,0,.42.18.54.54a1.62,1.62,0,0,0,.91.91,3.9,3.9,0,0,0,2.54,2,11.12,11.12,0,0,1,2.9,1.27C343.37,282.1,342.52,282.83,340.83,283.31ZM33.14,287.66v1.81l2.18-2.17Zm77.92-180.85q-3.26,4.35-7.43,8.88t-7.43,8.52q-13.78,14.86-21.38,24.46t-7.61,14.68l.36.36q3.26-.36,8.33-3.26a31.23,31.23,0,0,1,7.25-2.9V159a33.65,33.65,0,0,0,7.25-3.63,18.71,18.71,0,0,1,8-6.16,17.89,17.89,0,0,0,3.44-3.63,12.86,12.86,0,0,0,1.45-3.44q.54-2,1.63-4.89,2.53-2.53,4.35-12a83.83,83.83,0,0,0,1.81-14.86ZM73.19,141.24c-1.57,1.94-2.72,3-3.44,3.26a21.81,21.81,0,0,0,3.08-4.17,7.32,7.32,0,0,1,3.81-3.44Q75.54,138.35,73.19,141.24ZM81.7,261.57l2.17-3.26a11.51,11.51,0,0,0,1.81-4q-.37.73-1.27,2.18t-1.27,2.17a3.14,3.14,0,0,0-1.45,2.54Zm13.41-6.16a13.12,13.12,0,0,0,3.63-2.9,5.17,5.17,0,0,0,.72-2.9,7.34,7.34,0,0,1,1.45-4l-.36-1.09a16.35,16.35,0,0,0-3.8,6c-.85,2.3-1.39,3.69-1.63,4.17Zm45.3-172.15a53.26,53.26,0,0,0,4.17-4.71,56.72,56.72,0,0,1,4.53-5.07,3.09,3.09,0,0,1-2-.73,2.77,2.77,0,0,0-1.63-.73,36.41,36.41,0,0,1-5.44,2.9,23.66,23.66,0,0,0-5.07,2.9Z" transform="translate(-18.64 -8.23)"/><path class="cls-1" d="M421.52,269.06h1.09a29.11,29.11,0,0,1,4,2,10.71,10.71,0,0,0,5.07,1.63,14.64,14.64,0,0,1,9.42-2.9q5.79,2.54,15.59,10.87,5.07,4.35,7.61,6.16,2.89,1.82,4.71,8.15t2.54,8.52l3.62-.73a22.25,22.25,0,0,1,5.44-2.9,52.67,52.67,0,0,1,6.52-2.17,8.76,8.76,0,0,0-2.36.36,9.85,9.85,0,0,1-2.72.36c1-1.69,1.93-2.54,2.9-2.54h.36q5.07-1.81,13.77-8,.72-1.81,6.52-1.81,1.81,0,5.25,2.17t4.89,2.9q2.17,1.82,5.8,4.35a19.63,19.63,0,0,1,5.07,4.71,30.87,30.87,0,0,1,2.72,5.26q1.26,3.08,2,4.53l3.26,7.25q-.36,1.82-6.7,6t-11.23,7.07q-4.89,2.9-7.07,4.35-21.39,12-21.38,14.5h.36l.72.36-1.09,3.26,2.9.36q4.35-1.44,26.28-4.17t28.09-2.72a25.12,25.12,0,0,1,11.23,2.9,24,24,0,0,0,4.17.73A14.67,14.67,0,0,1,565.4,351q4.71,1.82,15,13.77t12.87,17.4c.24,1.21.66,2.9,1.27,5.07a30.48,30.48,0,0,0,2,5.44,11.15,11.15,0,0,0-.73,4.71v2.17a5.9,5.9,0,0,0,.73,3.26l-.73,1.45h-1.45a16.55,16.55,0,0,1-4-.54,17.93,17.93,0,0,0-4.35-.54q-29,0-52.19,4.71a9.82,9.82,0,0,0-3.63,1.27,9.74,9.74,0,0,1-4,1.27h-.73q1.09,6.17,0,7.25L516.11,426q-1.82,1.45-10,8.52t-12.87,12q-4.71,4.89-4.71,6.34,0,2.54,4,8.7.36.73,2.17,3.8a10.93,10.93,0,0,1,1.81,5.26q0,1.45-10.51,9.79l-6.52,5.8a6.18,6.18,0,0,0,.36,2.54,26,26,0,0,0,5.44-.54,22.64,22.64,0,0,1,4.71-.54c.73,0,1.63.85,2.72,2.54a7.86,7.86,0,0,0,3.44,3.26q5.79,1.82,11.06,7.61t5.25,12q0,1.45-4.17,3.63a28.4,28.4,0,0,0-4.89,2.9q-2.9,2.9-16.67,9.78-12.32,6.53-14.13,8.7c0,1-.06,2.42-.18,4.35a18.51,18.51,0,0,0,.18,4.71l-.36,2.17a8.9,8.9,0,0,0,1.27,4.89,12.43,12.43,0,0,1,1.63,3.44l7.25-1.81a24.39,24.39,0,0,1,3.08-.73,21.36,21.36,0,0,0,4.53-1.45,13.76,13.76,0,0,1,5.44-.72q4,0,4.71-.36a14.94,14.94,0,0,1,3.08-.54,6.58,6.58,0,0,0,3.08-.91h4.35l1.09-.73,1.45-.36q3.62,0,10.33.54t7.79,1.63q17,12.69,21.75,24.65a14.82,14.82,0,0,1,2,4.35,17.44,17.44,0,0,1,.91,5.07q0,2.17-6.16,2.17c-2.9,0-5-.36-6.16-1.09a26.82,26.82,0,0,1-5.25-.54,28.68,28.68,0,0,0-5.62-.54,24.39,24.39,0,0,0-6.71,1.27,23.75,23.75,0,0,1-6.34,1.27,15.13,15.13,0,0,0-1.81-.72,6.12,6.12,0,0,0-1.81-.36,42.49,42.49,0,0,0-13,2.54q-1.45.36-5.44,1.45A29,29,0,0,1,490,592.7l-1.45-.36c0-.48-.13-.73-.36-.73a8.79,8.79,0,0,0-2.9,1.09h-2.17a4.17,4.17,0,0,0-2.9.73h-.36l-1.09-1.81-.73-.36a43.61,43.61,0,0,1-5.07,1.81,43.81,43.81,0,0,0-4.35,1.45q.72-2.17,6.89-6.16t8-5.44a29.19,29.19,0,0,0-8.52,1.27q-4.17,1.27-6,1.63l-10.87,2.54q-31.53,8-48.92,10.15a20,20,0,0,0-3.44,1.27,9.29,9.29,0,0,1-3.8.91,14.44,14.44,0,0,1-6.71-1.27,13.44,13.44,0,0,1-4.53-4.53q-1.82-.37-6.7-6.71T378.75,580a14.93,14.93,0,0,1-1.09-1.27,6.25,6.25,0,0,1-1.09-2l.36-1.81c0-.24.18-1.39.54-3.44s2-3.2,4.89-3.44l3.26.73q5.79-2.9,8-2.9a88.11,88.11,0,0,1,9.06-4.89,107.09,107.09,0,0,0,14.68-8.88Q424.42,547,425.5,542q-1.45-4.35-9.42-8.33-8.34-3.62-10.51-8.34l-1.81-1.45a21.35,21.35,0,0,1-.72-3.63,4.3,4.3,0,0,1,1.63-3.26,7.52,7.52,0,0,1,3.8-1.81q8.7,3.26,12.32,3.26,2.9,0,7.25-2.36t6.88-2.36a23,23,0,0,0,6.52-7.07,20,20,0,0,0,1.81-9.24,7,7,0,0,0-2.18-5.07q-5.8-.72-8-2.9-.37-1.09-1.45-4.71-1.45,0-3.8,2.36a18.17,18.17,0,0,1-3.08,2.72,41.6,41.6,0,0,0-4.53-.73,14.24,14.24,0,0,1-4.53-1.09,12.33,12.33,0,0,1-2.36-2.17,5.48,5.48,0,0,0-2.72-1.81,8,8,0,0,0-2.9-1.45,31.7,31.7,0,0,1-4.71-5.44,31.85,31.85,0,0,0-4.71-5.44q-1.82-.72-9.6-13t-7.79-14.86q0-2.89,3.62-10.87a94.13,94.13,0,0,1,8-14.32q4.35-6.34,7.25-6.34h3.63q1.81,0,2.17.73l2.17-.73-2.54,4.71-.36,5.07v2.9l.36.36v1.81l.36.36q3.62-1.81,10.87-6.16t11.6-6.52l-1.81-.73q-3.26,1.82-5.07,0l3.26-1.81h1.09q5.07-2.17,15.95-3.63,9.78-.72,14.13-2.54l1.09-1.09a93.55,93.55,0,0,0,12-5.8h1.09l1.81-1.09,1.09.73a15.55,15.55,0,0,0,3.26-2.36,7.8,7.8,0,0,1,3.63-2v-.36h.72a32.68,32.68,0,0,1,6.16-3.8c2.66-1.32,4.59-2,5.8-2l15.95,5.07v.73l1.81.36a421.46,421.46,0,0,1,37.69-20.3v-1.45a8.67,8.67,0,0,0-4.17-4.17,21,21,0,0,0-7.07-.91q-9.78,0-24.64,3.26-1.82.36-9.6,1.81a82.12,82.12,0,0,1-15,1.45H485.3a28,28,0,0,1-6,1.63q-4.54.91-6,2-4,0-5.44.73l-.73,1.09h-1.09a43.29,43.29,0,0,0-.91,6.16q-.54,5.08-3.44,5.07a24,24,0,0,1-4-.36,13.35,13.35,0,0,0-4.35,0,12.21,12.21,0,0,1-2.9-3.44q-1.45-2.35-5.8-4.17a16.52,16.52,0,0,0-4.89.54,24.93,24.93,0,0,0-4.17,2q-2.17,1.45-9.79,2.9-6.52,1.82-8.7,2.54-17,8.34-26.82,14a72.84,72.84,0,0,0-16.67,12.87,27.56,27.56,0,0,1-3.63,6.89q-4.35,6.53-4.35,10.87a134.37,134.37,0,0,0,1.45,15.95q.36,2.54.73,6.34t.36,8.88a3.54,3.54,0,0,1-.73,2.54l-1.81.72a17.48,17.48,0,0,0-4-.36,3.75,3.75,0,0,1-3.63-2.17l-.36-.36a5.49,5.49,0,0,1-3.26,1.45q-2.17,0-4.35-4.53c-1.45-3-2.66-4.53-3.62-4.53l-1.45.36q-2.54.73-3.08-2.72t-1.09-5.62a2.79,2.79,0,0,0-3.08-2.17,15,15,0,0,1-3.63-.36q-1.08-4.71-6.16-12.68a69,69,0,0,1-4.89-8.7,19.19,19.19,0,0,1-1.63-8c0-1,.6-1.69,1.81-2.17q2.18-2.17,5.08-10.15.36-.72,1.81-4.53t2.9-3.8l1.81.36a83,83,0,0,0,8.33-10.51,84.09,84.09,0,0,1,8.7-10.87h3.63q1.44-.72,4.89-2.17t5.62-2.54l3.26-.36h1.09q1.44.73,6.34-.36a37.34,37.34,0,0,1,7.07-1.09h1.81q3.26-.36,8-.54a44.91,44.91,0,0,0,8-.91l-1.81-1.09q-2.17,0-5.62-3.8t-4.89-4.53L383.83,355q0-1.44-2.9-5.44t-2.9-7.25q0-2.18,2.9-6.16t3.26-5.44a72.3,72.3,0,0,0,2.72-9.24q2-7.79,4.53-7.79a5,5,0,0,1,2.54.91,11.94,11.94,0,0,0,2.54,1.27,60.21,60.21,0,0,0,6.89,5.44l6.89,5.07q1.44,1.82,5.44,2.9a16.51,16.51,0,0,1,5.8,2.54,97.34,97.34,0,0,0,16.31-7.25,71.55,71.55,0,0,1,.36-12l.36-8.7q0-3.26-1.27-4.71a15.07,15.07,0,0,0-4.71-3.08,18.6,18.6,0,0,1-5.26-3.44q-.37-2.17-3.63-3.62-3.26-2.18-3.62-4.53a5.32,5.32,0,0,0-2.9-3.81l-1.81-1.81a58.63,58.63,0,0,1,.73-6.89,13.81,13.81,0,0,0,3.62-2.54Zm-67,110.9q-5.08,5.8-6.16,10.51l-.36.36.73-.36.36-1.09a32.15,32.15,0,0,0,3.26-4,34.64,34.64,0,0,1,3.63-4.35H357Zm20.66-2.17L374,379.23h-.36l-.73-.72A44.46,44.46,0,0,1,367.7,382a25.77,25.77,0,0,0-5.26,3.8,15.2,15.2,0,0,0-.36,3.62,4,4,0,0,0,2.54,4l1.09.73a8.48,8.48,0,0,1-.18,1.63,3.8,3.8,0,0,0,.18,2h1.81l8.34-5.8A185.13,185.13,0,0,1,392.52,381a38.25,38.25,0,0,0-7.07-1.27,22.47,22.47,0,0,1-7.07-1.63l-.36-.36-1.45.73c-.24.24-.42.31-.54.18s-.06-.3.18-.54Zm55.45,176.14a47.85,47.85,0,0,0-13.41,5.8q-7.25,4.35-9.42,9.06a68.47,68.47,0,0,0,12.32-1.27q6.88-1.27,13.41-2.72a30.31,30.31,0,0,0,3.26-.36c1.69-.24,2.54-.84,2.54-1.81q0-2.89-3.63-6.52A9.91,9.91,0,0,1,430.58,553.92Zm-18.12,15.95a5.52,5.52,0,0,1-3.26.36l.36.36,3.63-.72ZM432,358.21a5,5,0,0,0-2.72-3.8,10.22,10.22,0,0,0-4.89-1.27q-3.26,0-5.07,4a24.46,24.46,0,0,0-2.17,8l-1.09.73a62,62,0,0,0,10.51-2.17q6.52-1.81,6.52-3.63Zm10.87,70.67q-12,0-15.95,5.8l-3.62,2.54.36,1.09-.73,2.17a53.18,53.18,0,0,0,1.27,12.69,55.2,55.2,0,0,0,4.89,12q3.62-2.18,17.58-16.67T462.47,430c-1.21-.24-2.66-.48-4.35-.73a45.13,45.13,0,0,0-6.16-.36ZM453,406.05a1,1,0,0,0,.73-.36l.73-.73-1.09,1.45Zm21.56-88.25q-2.36,2.36-2.72,7.43a46.39,46.39,0,0,1-2.17,10.15,6.83,6.83,0,0,1,1.81-1.27,6.88,6.88,0,0,0,1.81-1.27q2.17-1.08,7.79-9.24t6.34-10.69Q477,315.45,474.61,317.8Zm12.5,1.27v-.36l-2.9,3.63,1.45-1.09Z" transform="translate(-18.64 -8.23)"/><text class="cls-2" transform="translate(13.99 570.52)">HEAVEN</text></g></svg>